<svg width="120" height="120" viewBox="0 0 120 120" fill="#FCA522" xmlns="http://www.w3.org/2000/svg">
<path d="M45 55V30C45 21.7157 51.7157 15 60 15C68.2843 15 75 21.7157 75 30V54.8363M52 105H68C79.2011 105 84.8016 105 89.0798 102.82C92.8431 100.903 95.9027 97.8431 97.8201 94.0798C100 89.8016 100 84.2011 100 73V61C100 55.3995 100 52.5992 98.9101 50.4601C97.9513 48.5785 96.4215 47.0487 94.5399 46.0899C92.4008 45 89.6005 45 84 45H36C30.3995 45 27.5992 45 25.4601 46.0899C23.5785 47.0487 22.0487 48.5785 21.0899 50.4601C20 52.5992 20 55.3995 20 61V73C20 84.201 20 89.8016 22.1799 94.0798C24.0973 97.8431 27.1569 100.903 30.9202 102.82C35.1984 105 40.7989 105 52 105Z" stroke="#A600FF" stroke-width="2" stroke-linecap="round" stroke-linejoin="round"/>
</svg>
