<svg width="57" height="57" viewBox="0 0 57 57" fill="none" xmlns="http://www.w3.org/2000/svg">
<path d="M12.2881 18.6834C12.2881 14.763 12.2881 12.8028 13.051 11.3055C13.7222 9.98833 14.793 8.91747 16.1102 8.24635C17.6075 7.4834 19.5677 7.4834 23.4881 7.4834H33.7548C37.6751 7.4834 39.6353 7.4834 41.1327 8.24635C42.4498 8.91747 43.5207 9.98833 44.1918 11.3055C44.9548 12.8028 44.9548 14.763 44.9548 18.6834V38.2834C44.9548 42.2038 44.9548 44.164 44.1918 45.6613C43.5207 46.9785 42.4498 48.0493 41.1327 48.7204C39.6353 49.4834 37.6751 49.4834 33.7548 49.4834H23.4881C19.5677 49.4834 17.6075 49.4834 16.1102 48.7204C14.793 48.0493 13.7222 46.9785 13.051 45.6613C12.2881 44.164 12.2881 42.2038 12.2881 38.2834V18.6834Z" stroke="white" stroke-width="1.58359" stroke-linecap="round" stroke-linejoin="round"/>
<path d="M23.9548 42.4834C23.9548 39.9061 26.0441 37.8167 28.6214 37.8167C31.1988 37.8167 33.2881 39.9061 33.2881 42.4834V49.4834H23.9548V42.4834Z" stroke="white" stroke-width="1.58359" stroke-linecap="round" stroke-linejoin="round"/>
<path d="M33.2881 30.8167V28.4834H35.6214V30.8167H33.2881Z" stroke="white" stroke-width="1.58359" stroke-linecap="round" stroke-linejoin="round"/>
<path d="M21.6214 30.8167V28.4834H23.9548V30.8167H21.6214Z" stroke="white" stroke-width="1.58359" stroke-linecap="round" stroke-linejoin="round"/>
<path d="M21.6214 19.1501V16.8167H23.9548V19.1501H21.6214Z" stroke="white" stroke-width="1.58359" stroke-linecap="round" stroke-linejoin="round"/>
<path d="M33.2881 19.1501V16.8167H35.6214V19.1501H33.2881Z" stroke="white" stroke-width="1.58359" stroke-linecap="round" stroke-linejoin="round"/>
</svg>
