<svg width="24" height="25" viewBox="0 0 24 25" fill="none" xmlns="http://www.w3.org/2000/svg">
<path d="M5.63803 20.173L5.18404 21.064L5.63803 20.173ZM4.32698 18.862L3.43597 19.316L4.32698 18.862ZM19.673 18.862L20.564 19.316L19.673 18.862ZM18.362 20.173L18.816 21.064L18.362 20.173ZM18.362 4.82698L18.816 3.93597L18.362 4.82698ZM19.673 6.13803L20.564 5.68404L19.673 6.13803ZM5.63803 4.82698L5.18404 3.93597L5.63803 4.82698ZM4.32698 6.13803L3.43597 5.68404L4.32698 6.13803ZM14 14C14 14.5523 14.4477 15 15 15C15.5523 15 16 14.5523 16 14H14ZM15 9.5H16C16 8.94772 15.5523 8.5 15 8.5V9.5ZM10.5 8.5C9.94772 8.5 9.5 8.94772 9.5 9.5C9.5 10.0523 9.94772 10.5 10.5 10.5V8.5ZM8.29307 14.7928C7.90255 15.1834 7.90256 15.8165 8.29309 16.2071C8.68362 16.5976 9.31678 16.5976 9.7073 16.207L8.29307 14.7928ZM8.8 5.5H15.2V3.5H8.8V5.5ZM19 9.3V15.7H21V9.3H19ZM15.2 19.5H8.8V21.5H15.2V19.5ZM5 15.7V9.3H3V15.7H5ZM8.8 19.5C7.94342 19.5 7.36113 19.4992 6.91104 19.4624C6.47262 19.4266 6.24842 19.3617 6.09202 19.282L5.18404 21.064C5.66937 21.3113 6.18608 21.4099 6.74817 21.4558C7.2986 21.5008 7.97642 21.5 8.8 21.5V19.5ZM3 15.7C3 16.5236 2.99922 17.2014 3.04419 17.7518C3.09012 18.3139 3.18868 18.8306 3.43597 19.316L5.21799 18.408C5.1383 18.2516 5.07337 18.0274 5.03755 17.589C5.00078 17.1389 5 16.5566 5 15.7H3ZM6.09202 19.282C5.71569 19.0903 5.40973 18.7843 5.21799 18.408L3.43597 19.316C3.81947 20.0686 4.43139 20.6805 5.18404 21.064L6.09202 19.282ZM19 15.7C19 16.5566 18.9992 17.1389 18.9624 17.589C18.9266 18.0274 18.8617 18.2516 18.782 18.408L20.564 19.316C20.8113 18.8306 20.9099 18.3139 20.9558 17.7518C21.0008 17.2014 21 16.5236 21 15.7H19ZM15.2 21.5C16.0236 21.5 16.7014 21.5008 17.2518 21.4558C17.8139 21.4099 18.3306 21.3113 18.816 21.064L17.908 19.282C17.7516 19.3617 17.5274 19.4266 17.089 19.4624C16.6389 19.4992 16.0566 19.5 15.2 19.5V21.5ZM18.782 18.408C18.5903 18.7843 18.2843 19.0903 17.908 19.282L18.816 21.064C19.5686 20.6805 20.1805 20.0686 20.564 19.316L18.782 18.408ZM15.2 5.5C16.0566 5.5 16.6389 5.50078 17.089 5.53755C17.5274 5.57337 17.7516 5.6383 17.908 5.71799L18.816 3.93597C18.3306 3.68868 17.8139 3.59012 17.2518 3.54419C16.7014 3.49922 16.0236 3.5 15.2 3.5V5.5ZM21 9.3C21 8.47642 21.0008 7.7986 20.9558 7.24817C20.9099 6.68608 20.8113 6.16937 20.564 5.68404L18.782 6.59202C18.8617 6.74842 18.9266 6.97262 18.9624 7.41104C18.9992 7.86113 19 8.44342 19 9.3H21ZM17.908 5.71799C18.2843 5.90973 18.5903 6.21569 18.782 6.59202L20.564 5.68404C20.1805 4.93139 19.5686 4.31947 18.816 3.93597L17.908 5.71799ZM8.8 3.5C7.97642 3.5 7.2986 3.49922 6.74817 3.54419C6.18608 3.59012 5.66937 3.68868 5.18404 3.93597L6.09202 5.71799C6.24842 5.6383 6.47262 5.57337 6.91104 5.53755C7.36113 5.50078 7.94342 5.5 8.8 5.5V3.5ZM5 9.3C5 8.44342 5.00078 7.86113 5.03755 7.41104C5.07337 6.97262 5.1383 6.74842 5.21799 6.59202L3.43597 5.68404C3.18868 6.16937 3.09012 6.68608 3.04419 7.24817C2.99922 7.7986 3 8.47642 3 9.3H5ZM5.18404 3.93597C4.43139 4.31947 3.81947 4.93139 3.43597 5.68404L5.21799 6.59202C5.40973 6.21569 5.71569 5.90973 6.09202 5.71799L5.18404 3.93597ZM16 14V9.5H14V14H16ZM15 8.5H10.5V10.5H15V8.5ZM9.7073 16.207L15.7071 10.2071L14.2929 8.7929L8.29307 14.7928L9.7073 16.207Z" fill="#DD8500"/>
</svg>
