<svg width="57" height="57" viewBox="0 0 57 57" fill="none" xmlns="http://www.w3.org/2000/svg">
<path d="M25.67 38.1715L29.4927 34.3807C31.3927 32.4966 32.3427 31.5545 33.4308 31.2153C34.3875 30.9171 35.4149 30.9348 36.3608 31.2658C37.4366 31.6423 38.3535 32.6166 40.1875 34.5651L42.621 37.1507M25.67 38.1715L24.8734 37.3816C22.993 35.5168 22.0527 34.5844 20.9739 34.2441C20.0252 33.9448 19.0056 33.9565 18.064 34.2776C16.9933 34.6426 16.0748 35.5964 14.2377 37.5039L13.4543 38.3174M25.67 38.1715L18.4641 45.3174M22.7876 20.8174H22.811M22.4878 47.6507H34.7541C36.3439 47.6507 37.1389 47.6507 37.8487 47.4174C38.4767 47.2111 39.0536 46.8736 39.5414 46.4274C40.0927 45.9232 40.4824 45.2303 41.2619 43.8447L47.5619 32.6447C48.313 31.3094 48.6885 30.6417 48.8357 29.9338C48.9659 29.3073 48.9659 28.6608 48.8357 28.0343C48.6885 27.3264 48.313 26.6587 47.5619 25.3234L41.2619 14.1234C40.4824 12.7378 40.0927 12.0449 39.5414 11.5406C39.0536 11.0945 38.4767 10.757 37.8487 10.5507C37.1389 10.3174 36.3439 10.3174 34.7541 10.3174H22.4878C20.898 10.3174 20.1031 10.3174 19.3933 10.5507C18.7653 10.757 18.1883 11.0945 17.7005 11.5406C17.1492 12.0449 16.7595 12.7378 15.9801 14.1234L9.68007 25.3234C8.92897 26.6587 8.55342 27.3264 8.40627 28.0343C8.27604 28.6608 8.27604 29.3073 8.40627 29.9338C8.55342 30.6417 8.92897 31.3094 9.68007 32.6447L15.9801 43.8447C16.7595 45.2303 17.1492 45.9232 17.7005 46.4274C18.1883 46.8736 18.7653 47.2111 19.3933 47.4174C20.1031 47.6507 20.898 47.6507 22.4878 47.6507ZM23.9543 20.8174C23.9543 21.4617 23.432 21.984 22.7876 21.984C22.1433 21.984 21.621 21.4617 21.621 20.8174C21.621 20.1731 22.1433 19.6507 22.7876 19.6507C23.432 19.6507 23.9543 20.1731 23.9543 20.8174Z" stroke="white" stroke-width="1.58359" stroke-linecap="round" stroke-linejoin="round"/>
</svg>
