<svg width="120" height="120" viewBox="0 0 120 120" fill="none" xmlns="http://www.w3.org/2000/svg">
<path d="M53.6766 79.6875L61.868 71.5643C65.9395 67.5268 67.9753 65.508 70.3069 64.7813C72.3571 64.1423 74.5586 64.1802 76.5855 64.8895C78.8907 65.6962 80.8556 67.784 84.7855 71.9595L90.0002 77.5M53.6766 79.6875L51.9697 77.9948C47.9402 73.9988 45.9254 72.0008 43.6137 71.2716C41.5806 70.6302 39.3959 70.6553 37.3781 71.3433C35.0838 72.1255 33.1155 74.1693 29.1789 78.2569L27.5002 80M53.6766 79.6875L38.2355 95M47.5002 42.5H47.5502M46.8577 100H73.1426C76.5494 100 78.2528 100 79.7738 99.5001C81.1195 99.0579 82.3559 98.3348 83.4011 97.3787C84.5825 96.2981 85.4176 94.8134 87.0878 91.8442L100.588 67.8442C102.197 64.9829 103.002 63.5522 103.317 62.0352C103.596 60.6928 103.596 59.3072 103.317 57.9648C103.002 56.4478 102.197 55.0171 100.588 52.1558L87.0878 28.1558C85.4176 25.1866 84.5825 23.7019 83.4011 22.6213C82.3559 21.6652 81.1195 20.9421 79.7738 20.4999C78.2528 20 76.5494 20 73.1426 20H46.8577C43.4509 20 41.7475 20 40.2265 20.4999C38.8808 20.9421 37.6444 21.6652 36.5992 22.6213C35.4178 23.7019 34.5827 25.1866 32.9125 28.1558L19.4125 52.1558C17.803 55.0171 16.9983 56.4478 16.6829 57.9648C16.4039 59.3072 16.4039 60.6928 16.6829 62.0352C16.9983 63.5522 17.803 64.9829 19.4125 67.8442L32.9125 91.8442C34.5827 94.8134 35.4178 96.2981 36.5992 97.3787C37.6444 98.3348 38.8808 99.0579 40.2265 99.5001C41.7475 100 43.4509 100 46.8577 100ZM50.0002 42.5C50.0002 43.8807 48.8809 45 47.5002 45C46.1194 45 45.0002 43.8807 45.0002 42.5C45.0002 41.1193 46.1194 40 47.5002 40C48.8809 40 50.0002 41.1193 50.0002 42.5Z" stroke="#A600FF" stroke-width="2" stroke-linecap="round" stroke-linejoin="round"/>
</svg>
