<svg width="56" height="56" viewBox="0 0 56 56" fill="none" xmlns="http://www.w3.org/2000/svg">
<path d="M23.3333 18.6667H32.6667C35.244 18.6667 37.3333 20.756 37.3333 23.3333C37.3333 25.9107 35.244 28 32.6667 28M23.3333 18.6667V28M23.3333 18.6667H18.6667M23.3333 18.6667V14M32.6667 28H23.3333M32.6667 28C35.244 28 37.3333 30.0893 37.3333 32.6667C37.3333 35.244 35.244 37.3333 32.6667 37.3333H23.3333M23.3333 28V37.3333M23.3333 37.3333H18.6667M23.3333 37.3333V42M30.3333 18.6667V14M30.3333 42V37.3333M49 28C49 39.598 39.598 49 28 49C16.402 49 7 39.598 7 28C7 16.402 16.402 7 28 7C39.598 7 49 16.402 49 28Z" stroke="#DD8500" stroke-width="2" stroke-linecap="round" stroke-linejoin="round"/>
</svg>
