<svg width="56" height="56" viewBox="0 0 56 56" fill="none" xmlns="http://www.w3.org/2000/svg">
<path d="M23.3333 49H14.4667C11.8531 49 10.5463 49 9.54804 48.4914C8.66995 48.044 7.95605 47.33 7.50864 46.452C7 45.4537 7 44.1469 7 41.5333V23.8C7 21.1864 7 19.8796 7.50864 18.8814C7.95605 18.0033 8.66995 17.2894 9.54804 16.842C10.5463 16.3333 11.8531 16.3333 14.4667 16.3333H23.3333M37.8 49H41.5333C44.1469 49 45.4537 49 46.452 48.4914C47.33 48.044 48.044 47.33 48.4914 46.452C49 45.4537 49 44.1469 49 41.5333V14.4667C49 11.8531 49 10.5463 48.4914 9.54804C48.044 8.66995 47.33 7.95605 46.452 7.50864C45.4537 7 44.1469 7 41.5333 7H37.8C35.1864 7 33.8796 7 32.8814 7.50864C32.0033 7.95605 31.2894 8.66995 30.842 9.54804C30.3333 10.5463 30.3333 11.8531 30.3333 14.4667V41.5333C30.3333 44.1469 30.3333 45.4537 30.842 46.452C31.2894 47.33 32.0033 48.044 32.8814 48.4914C33.8796 49 35.1864 49 37.8 49ZM38.5 16.3333H40.8333V14H38.5V16.3333ZM38.5 28H40.8333V25.6667H38.5V28ZM38.5 39.6667H40.8333V37.3333H38.5V39.6667ZM16.3333 28H18.6667V25.6667H16.3333V28ZM16.3333 39.6667H18.6667V37.3333H16.3333V39.6667Z" stroke="white" stroke-width="2" stroke-linecap="round" stroke-linejoin="round"/>
</svg>
