<svg width="56" height="56" viewBox="0 0 56 56" fill="none" xmlns="http://www.w3.org/2000/svg">
<path d="M18.667 39.667H37.3337M18.667 39.667C18.667 42.2443 16.5777 44.3337 14.0003 44.3337C11.423 44.3337 9.33366 42.2443 9.33366 39.667M18.667 39.667C18.667 37.0897 16.5777 35.0003 14.0003 35.0003C11.423 35.0003 9.33366 37.0897 9.33366 39.667M37.3337 39.667C37.3337 42.2443 39.423 44.3337 42.0003 44.3337C44.5777 44.3337 46.667 42.2443 46.667 39.667M37.3337 39.667C37.3337 37.0897 39.423 35.0003 42.0003 35.0003C44.5777 35.0003 46.667 37.0897 46.667 39.667M23.3337 11.667V25.667M9.33366 25.667L10.1072 21.0257C10.6614 17.7008 10.9384 16.0384 11.768 14.7908C12.4993 13.6912 13.5268 12.8208 14.7317 12.2802C16.0987 11.667 17.7841 11.667 21.1548 11.667H29.0063C31.1978 11.667 32.2935 11.667 33.2881 11.969C34.1687 12.2365 34.9878 12.6749 35.6988 13.2592C36.5018 13.9192 37.1096 14.8309 38.3252 16.6544L44.3337 25.667M9.33366 39.667H8.40033C7.09354 39.667 6.44014 39.667 5.94101 39.4127C5.50197 39.189 5.14501 38.832 4.92131 38.393C4.66699 37.8938 4.66699 37.2404 4.66699 35.9337V33.1337C4.66699 30.5201 4.66699 29.2133 5.17563 28.215C5.62304 27.3369 6.33695 26.623 7.21504 26.1756C8.21329 25.667 9.52008 25.667 12.1337 25.667H40.1337C41.8678 25.667 42.7349 25.667 43.4604 25.7819C47.454 26.4144 50.5862 29.5466 51.2188 33.5403C51.3337 34.2658 51.3337 35.1329 51.3337 36.867C51.3337 37.3005 51.3337 37.5173 51.3049 37.6987C51.1468 38.6971 50.3638 39.4801 49.3653 39.6383C49.184 39.667 48.9672 39.667 48.5337 39.667H46.667" stroke="white" stroke-width="2" stroke-linecap="round" stroke-linejoin="round"/>
</svg>
