<svg width="120" height="120" viewBox="0 0 120 120" fill="none" xmlns="http://www.w3.org/2000/svg">
<path d="M31.4988 25H105L95 60H36.8836M100 80H40L30 15H15M45 100C45 102.761 42.7614 105 40 105C37.2386 105 35 102.761 35 100C35 97.2386 37.2386 95 40 95C42.7614 95 45 97.2386 45 100ZM100 100C100 102.761 97.7614 105 95 105C92.2386 105 90 102.761 90 100C90 97.2386 92.2386 95 95 95C97.7614 95 100 97.2386 100 100Z" stroke="#A600FF" stroke-width="2" stroke-linecap="round" stroke-linejoin="round"/>
</svg>
