<svg width="56" height="57" viewBox="0 0 56 57" fill="none" xmlns="http://www.w3.org/2000/svg">
<path d="M14.6995 12.651H49L44.3333 28.9844H17.2123M46.6667 38.3177H18.6667L14 7.98438H7M21 47.651C21 48.9397 19.9553 49.9844 18.6667 49.9844C17.378 49.9844 16.3333 48.9397 16.3333 47.651C16.3333 46.3624 17.378 45.3177 18.6667 45.3177C19.9553 45.3177 21 46.3624 21 47.651ZM46.6667 47.651C46.6667 48.9397 45.622 49.9844 44.3333 49.9844C43.0447 49.9844 42 48.9397 42 47.651C42 46.3624 43.0447 45.3177 44.3333 45.3177C45.622 45.3177 46.6667 46.3624 46.6667 47.651Z" stroke="white" stroke-width="1.58359" stroke-linecap="round" stroke-linejoin="round"/>
</svg>
