<svg width="881" height="154" viewBox="0 0 881 154" fill="none" xmlns="http://www.w3.org/2000/svg">
<path d="M870.167 148C870.167 150.946 872.554 153.333 875.5 153.333C878.446 153.333 880.833 150.946 880.833 148C880.833 145.054 878.446 142.667 875.5 142.667C872.554 142.667 870.167 145.054 870.167 148ZM0.166667 148C0.166667 150.946 2.55448 153.333 5.5 153.333C8.44552 153.333 10.8333 150.946 10.8333 148C10.8333 145.054 8.44552 142.667 5.5 142.667C2.55448 142.667 0.166667 145.054 0.166667 148ZM876.5 148V25H874.5V148H876.5ZM851.5 0H29.5V2H851.5V0ZM4.5 25V148H6.5V25H4.5ZM29.5 0C15.6929 0 4.5 11.1929 4.5 25H6.5C6.5 12.2975 16.7975 2 29.5 2V0ZM876.5 25C876.5 11.1929 865.307 0 851.5 0V2C864.203 2 874.5 12.2974 874.5 25H876.5Z" fill="#DD8500"/>
</svg>
