<svg width="120" height="120" viewBox="0 0 120 120" fill="none" xmlns="http://www.w3.org/2000/svg">
<path d="M80 55H70M80 80H70M40 55L45 60L55 50M40 80L45 85L55 75M80 25C88.2843 25 95 31.7157 95 40V81C95 89.4008 95 93.6012 93.3651 96.8099C91.927 99.6323 89.6323 101.927 86.8099 103.365C83.6012 105 79.4008 105 71 105H49C40.5992 105 36.3988 105 33.1901 103.365C30.3677 101.927 28.073 99.6323 26.6349 96.8099C25 93.6012 25 89.4008 25 81V40C25 31.7157 31.7157 25 40 25M40 35H80V23.5355C80 21.2718 79.1007 19.1007 77.5 17.5C75.8993 15.8993 73.7282 15 71.4645 15H48.5355C46.2718 15 44.1007 15.8993 42.5 17.5C40.8993 19.1007 40 21.2718 40 23.5355V35Z" stroke="#A600FF" stroke-width="2" stroke-linecap="round" stroke-linejoin="round"/>
</svg>
