<svg width="57" height="57" viewBox="0 0 57 57" fill="none" xmlns="http://www.w3.org/2000/svg">
<path d="M37.5749 26.651H32.9082M37.5749 38.3177H32.9082M18.9082 26.651L21.2415 28.9844L25.9082 24.3177M18.9082 38.3177L21.2415 40.651L25.9082 35.9844M37.5749 12.651C41.4409 12.651 44.5749 15.785 44.5749 19.651V38.7844C44.5749 42.7047 44.5749 44.6649 43.8119 46.1623C43.1408 47.4794 42.0699 48.5503 40.7528 49.2214C39.2554 49.9844 37.2952 49.9844 33.3749 49.9844H23.1082C19.1878 49.9844 17.2277 49.9844 15.7303 49.2214C14.4131 48.5503 13.3423 47.4794 12.6712 46.1623C11.9082 44.6649 11.9082 42.7047 11.9082 38.7844V19.651C11.9082 15.785 15.0422 12.651 18.9082 12.651M18.9082 17.3177H37.5749V11.9676C37.5749 10.9112 37.1552 9.89805 36.4082 9.15104C35.6612 8.40404 34.648 7.98438 33.5916 7.98438H22.8915C21.835 7.98438 20.8219 8.40404 20.0749 9.15104C19.3279 9.89805 18.9082 10.9112 18.9082 11.9676V17.3177Z" stroke="white" stroke-width="1.58359" stroke-linecap="round" stroke-linejoin="round"/>
</svg>
