<svg width="56" height="56" viewBox="0 0 56 56" fill="none" xmlns="http://www.w3.org/2000/svg">
<path d="M18.6667 15.1663H37.3333M18.6667 20.9997L28 34.9997M10.7333 20.9997H14.9333C16.2401 20.9997 16.8935 20.9997 17.3926 20.7454C17.8317 20.5217 18.1886 20.1647 18.4123 19.7257C18.6667 19.2265 18.6667 18.5731 18.6667 17.2663V13.0663C18.6667 11.7596 18.6667 11.1062 18.4123 10.607C18.1886 10.168 17.8317 9.81103 17.3926 9.58733C16.8935 9.33301 16.2401 9.33301 14.9333 9.33301H10.7333C9.42654 9.33301 8.77315 9.33301 8.27402 9.58733C7.83498 9.81103 7.47802 10.168 7.25432 10.607C7 11.1062 7 11.7596 7 13.0663V17.2663C7 18.5731 7 19.2265 7.25432 19.7257C7.47802 20.1647 7.83498 20.5217 8.27402 20.7454C8.77315 20.9997 9.42654 20.9997 10.7333 20.9997ZM31.7333 46.6663H35.9333C37.2401 46.6663 37.8935 46.6663 38.3926 46.412C38.8317 46.1883 39.1886 45.8314 39.4123 45.3923C39.6667 44.8932 39.6667 44.2398 39.6667 42.933V38.733C39.6667 37.4262 39.6667 36.7728 39.4123 36.2737C39.1886 35.8346 38.8317 35.4777 38.3926 35.254C37.8935 34.9997 37.2401 34.9997 35.9333 34.9997H31.7333C30.4265 34.9997 29.7731 34.9997 29.274 35.254C28.835 35.4777 28.478 35.8346 28.2543 36.2737C28 36.7728 28 37.4262 28 38.733V42.933C28 44.2398 28 44.8932 28.2543 45.3923C28.478 45.8314 28.835 46.1883 29.274 46.412C29.7731 46.6663 30.4265 46.6663 31.7333 46.6663ZM41.0667 20.9997H45.2667C46.5735 20.9997 47.2269 20.9997 47.726 20.7454C48.165 20.5217 48.522 20.1647 48.7457 19.7257C49 19.2265 49 18.5731 49 17.2663V13.0663C49 11.7596 49 11.1062 48.7457 10.607C48.522 10.168 48.165 9.81103 47.726 9.58733C47.2269 9.33301 46.5735 9.33301 45.2667 9.33301H41.0667C39.7599 9.33301 39.1065 9.33301 38.6074 9.58733C38.1683 9.81103 37.8114 10.168 37.5877 10.607C37.3333 11.1062 37.3333 11.7596 37.3333 13.0663V17.2663C37.3333 18.5731 37.3333 19.2265 37.5877 19.7257C37.8114 20.1647 38.1683 20.5217 38.6074 20.7454C39.1065 20.9997 39.7599 20.9997 41.0667 20.9997Z" stroke="#DD8500" stroke-width="2" stroke-linecap="round" stroke-linejoin="round"/>
</svg>
