<svg width="56" height="56" viewBox="0 0 56 56" fill="none" xmlns="http://www.w3.org/2000/svg">
<path d="M18.6667 15.1668H37.3333M18.6667 21.0002L28 35.0002M10.7333 21.0002H14.9333C16.2401 21.0002 16.8935 21.0002 17.3926 20.7458C17.8317 20.5221 18.1886 20.1652 18.4123 19.7261C18.6667 19.227 18.6667 18.5736 18.6667 17.2668V13.0668C18.6667 11.76 18.6667 11.1066 18.4123 10.6075C18.1886 10.1685 17.8317 9.81152 17.3926 9.58781C16.8935 9.3335 16.2401 9.3335 14.9333 9.3335H10.7333C9.42654 9.3335 8.77315 9.3335 8.27402 9.58781C7.83498 9.81152 7.47802 10.1685 7.25432 10.6075C7 11.1066 7 11.76 7 13.0668V17.2668C7 18.5736 7 19.227 7.25432 19.7261C7.47802 20.1652 7.83498 20.5221 8.27402 20.7458C8.77315 21.0002 9.42654 21.0002 10.7333 21.0002ZM31.7333 46.6668H35.9333C37.2401 46.6668 37.8935 46.6668 38.3926 46.4125C38.8317 46.1888 39.1886 45.8319 39.4123 45.3928C39.6667 44.8937 39.6667 44.2403 39.6667 42.9335V38.7335C39.6667 37.4267 39.6667 36.7733 39.4123 36.2742C39.1886 35.8351 38.8317 35.4782 38.3926 35.2545C37.8935 35.0002 37.2401 35.0002 35.9333 35.0002H31.7333C30.4265 35.0002 29.7731 35.0002 29.274 35.2545C28.835 35.4782 28.478 35.8351 28.2543 36.2742C28 36.7733 28 37.4267 28 38.7335V42.9335C28 44.2403 28 44.8937 28.2543 45.3928C28.478 45.8319 28.835 46.1888 29.274 46.4125C29.7731 46.6668 30.4265 46.6668 31.7333 46.6668ZM41.0667 21.0002H45.2667C46.5735 21.0002 47.2269 21.0002 47.726 20.7458C48.165 20.5221 48.522 20.1652 48.7457 19.7261C49 19.227 49 18.5736 49 17.2668V13.0668C49 11.76 49 11.1066 48.7457 10.6075C48.522 10.1685 48.165 9.81152 47.726 9.58781C47.2269 9.3335 46.5735 9.3335 45.2667 9.3335H41.0667C39.7599 9.3335 39.1065 9.3335 38.6074 9.58781C38.1683 9.81152 37.8114 10.1685 37.5877 10.6075C37.3333 11.1066 37.3333 11.76 37.3333 13.0668V17.2668C37.3333 18.5736 37.3333 19.227 37.5877 19.7261C37.8114 20.1652 38.1683 20.5221 38.6074 20.7458C39.1065 21.0002 39.7599 21.0002 41.0667 21.0002Z" stroke="#A600FF" stroke-width="2" stroke-linecap="round" stroke-linejoin="round"/>
</svg>
