<svg width="120" height="120" viewBox="0 0 120 120" fill="none" xmlns="http://www.w3.org/2000/svg">
<path d="M99 37.5C99 38.0523 99.4477 38.5 100 38.5C100.552 38.5 101 38.0523 101 37.5H99ZM40 101C40.5523 101 41 100.552 41 100C41 99.4477 40.5523 99 40 99V101ZM20.1283 86.9579L19.1369 87.0884L20.1283 86.9579ZM33.0421 99.8717L32.9116 100.863L33.0421 99.8717ZM28.1901 21.6349L28.6441 22.5259L28.1901 21.6349ZM21.6349 28.1901L22.5259 28.6441L21.6349 28.1901ZM35 51.5C34.4477 51.5 34 51.9477 34 52.5C34 53.0523 34.4477 53.5 35 53.5V51.5ZM60 53.5C60.5523 53.5 61 53.0523 61 52.5C61 51.9477 60.5523 51.5 60 51.5V53.5ZM35 34C34.4477 34 34 34.4477 34 35C34 35.5523 34.4477 36 35 36V34ZM70 36C70.5523 36 71 35.5523 71 35C71 34.4477 70.5523 34 70 34V36ZM55.9772 104.473L55.0037 104.244C54.926 104.575 55.0216 104.922 55.2576 105.167C55.4936 105.411 55.8376 105.519 56.1711 105.454L55.9772 104.473ZM61.5295 87.3558L62.344 87.936L61.5295 87.3558ZM57.5674 97.7083L58.5409 97.9371L57.5674 97.7083ZM59.3756 91.2233L60.2977 91.6102L59.3756 91.2233ZM73.6824 99.2578L73.1109 98.4372L73.6824 99.2578ZM62.5511 103.173L62.745 104.154L62.5511 103.173ZM69.526 101.476L69.8896 102.408L69.526 101.476ZM44 21H85V19H44V21ZM21 82.5V44H19V82.5H21ZM19 82.5C19 84.7903 18.9978 86.0323 19.1369 87.0884L21.1198 86.8274C21.0022 85.934 21 84.8539 21 82.5H19ZM40 99C38.8378 99 37.3481 99 36.0279 98.984C34.6763 98.9677 33.5872 98.9348 33.1726 98.8802L32.9116 100.863C33.4718 100.937 34.7006 100.968 36.0037 100.984C37.3382 101 38.8401 101 40 101V99ZM19.1369 87.0884C20.0821 94.2682 25.7318 99.9179 32.9116 100.863L33.1726 98.8802C26.8904 98.0532 21.9468 93.1096 21.1198 86.8274L19.1369 87.0884ZM85 21C88.7563 21 92.2452 23.0934 94.8306 26.2742C97.4155 29.4541 99 33.6107 99 37.5H101C101 33.105 99.2267 28.5116 96.3826 25.0126C93.5391 21.5145 89.528 19 85 19V21ZM44 19C39.8161 19 36.618 18.9992 34.0666 19.2077C31.5035 19.4171 29.505 19.8426 27.7362 20.7439L28.6441 22.5259C30.084 21.7923 31.79 21.4004 34.2295 21.201C36.6806 21.0008 39.7831 21 44 21V19ZM21 44C21 39.7831 21.0008 36.6806 21.201 34.2295C21.4004 31.79 21.7923 30.084 22.5259 28.6441L20.7439 27.7362C19.8426 29.505 19.4171 31.5035 19.2077 34.0666C18.9992 36.618 19 39.8161 19 44H21ZM27.7362 20.7439C24.7256 22.2779 22.2779 24.7256 20.7439 27.7362L22.5259 28.6441C23.8681 26.0099 26.0099 23.8681 28.6441 22.5259L27.7362 20.7439ZM49 77.5C49 81.0899 46.0899 84 42.5 84V86C47.1944 86 51 82.1944 51 77.5H49ZM42.5 84C38.9101 84 36 81.0899 36 77.5H34C34 82.1944 37.8056 86 42.5 86V84ZM36 77.5C36 73.9101 38.9101 71 42.5 71V69C37.8056 69 34 72.8056 34 77.5H36ZM42.5 71C46.0899 71 49 73.9101 49 77.5H51C51 72.8056 47.1944 69 42.5 69V71ZM35 53.5H60V51.5H35V53.5ZM35 36H70V34H35V36ZM104.01 67.9587L78.2675 93.7008L79.6817 95.1151L105.424 69.3729L104.01 67.9587ZM66.7979 83.1112L92.98 56.929L91.5658 55.5148L65.3837 81.697L66.7979 83.1112ZM62.3572 102.192L55.7833 103.492L56.1711 105.454L62.745 104.154L62.3572 102.192ZM56.9507 104.701L58.5409 97.9371L56.594 97.4794L55.0037 104.244L56.9507 104.701ZM65.3837 81.697C63.0107 84.07 61.7421 85.3341 60.7151 86.7755L62.344 87.936C63.252 86.6616 64.3792 85.5299 66.7979 83.1112L65.3837 81.697ZM58.5409 97.9371C59.3237 94.6074 59.6923 93.0532 60.2977 91.6102L58.4535 90.8365C57.7687 92.4685 57.362 94.2126 56.594 97.4794L58.5409 97.9371ZM60.7151 86.7755C59.8133 88.0413 59.0547 89.4033 58.4535 90.8365L60.2977 91.6102C60.8417 90.3135 61.528 89.0813 62.344 87.936L60.7151 86.7755ZM78.2675 93.7008C75.6863 96.2821 74.4783 97.485 73.1109 98.4372L74.2539 100.078C75.8005 99.0014 77.1494 97.6474 79.6817 95.1151L78.2675 93.7008ZM62.745 104.154C66.2583 103.46 68.134 103.093 69.8896 102.408L69.1623 100.545C67.6101 101.151 65.9384 101.485 62.3572 102.192L62.745 104.154ZM73.1109 98.4372C71.8823 99.2928 70.5569 100 69.1623 100.545L69.8896 102.408C71.4311 101.806 72.896 101.024 74.2539 100.078L73.1109 98.4372ZM104.01 56.929C107.055 59.9748 107.055 64.9129 104.01 67.9587L105.424 69.3729C109.251 65.5461 109.251 59.3416 105.424 55.5148L104.01 56.929ZM105.424 55.5148C101.597 51.688 95.3926 51.688 91.5658 55.5148L92.98 56.929C96.0258 53.8833 100.964 53.8833 104.01 56.929L105.424 55.5148Z" fill="#A600FF"/>
</svg>
