<svg width="57" height="57" viewBox="0 0 57 57" fill="none" xmlns="http://www.w3.org/2000/svg">
<path d="M46.1158 17.9831C46.1158 18.4204 46.4703 18.7749 46.9076 18.7749C47.3448 18.7749 47.6993 18.4204 47.6993 17.9831H46.1158ZM18.9076 47.9415C19.3448 47.9415 19.6993 47.587 19.6993 47.1497C19.6993 46.7124 19.3448 46.358 18.9076 46.358V47.9415ZM9.6341 41.0634L8.84908 41.1668L8.84908 41.1668L9.6341 41.0634ZM15.6605 47.0899L15.5572 47.8749L15.5572 47.8749L15.6605 47.0899ZM13.3963 10.5794L13.7558 11.2849L13.7558 11.2849L13.3963 10.5794ZM10.3372 13.6385L11.0427 13.9979L11.0427 13.9979L10.3372 13.6385ZM16.5742 24.1913C16.1369 24.1913 15.7824 24.5458 15.7824 24.9831C15.7824 25.4204 16.1369 25.7749 16.5742 25.7749V24.1913ZM28.2409 25.7749C28.6782 25.7749 29.0327 25.4204 29.0327 24.9831C29.0327 24.5458 28.6782 24.1913 28.2409 24.1913V25.7749ZM16.5742 16.0246C16.1369 16.0246 15.7824 16.3791 15.7824 16.8164C15.7824 17.2537 16.1369 17.6082 16.5742 17.6082V16.0246ZM32.9076 17.6082C33.3448 17.6082 33.6993 17.2537 33.6993 16.8164C33.6993 16.3791 33.3448 16.0246 32.9076 16.0246V17.6082ZM26.3636 49.2369L25.5928 49.0557C25.5312 49.3177 25.6069 49.593 25.7938 49.7867C25.9806 49.9804 26.2531 50.0659 26.5171 50.0137L26.3636 49.2369ZM28.9547 41.2491L29.5995 41.7086L29.5995 41.7086L28.9547 41.2491ZM27.1057 46.0803L27.8765 46.2615L27.8765 46.2615L27.1057 46.0803ZM27.9495 43.054L28.6796 43.3603L28.6796 43.3603L27.9495 43.054ZM34.626 46.8034L34.1735 46.1536L34.626 46.8034ZM29.4314 48.6307L29.5849 49.4074L29.4314 48.6307ZM32.6863 47.8386L32.9743 48.5762L32.6863 47.8386ZM20.7742 10.6082H39.9076V9.02461H20.7742V10.6082ZM10.366 38.9831V21.0164H8.78242V38.9831H10.366ZM8.78242 38.9831C8.78242 40.0416 8.78072 40.6475 8.84908 41.1668L10.4191 40.9601C10.3677 40.5696 10.366 40.0919 10.366 38.9831H8.78242ZM18.9076 46.358C18.3648 46.358 17.6716 46.3579 17.0578 46.3505C16.4192 46.3428 15.9337 46.3272 15.7639 46.3048L15.5572 47.8749C15.8423 47.9124 16.4384 47.9267 17.0387 47.934C17.6638 47.9416 18.3667 47.9415 18.9076 47.9415V46.358ZM8.84908 41.1668C9.3094 44.6632 12.0607 47.4146 15.5572 47.8749L15.7639 46.3048C12.9781 45.9381 10.7859 43.7459 10.4191 40.9601L8.84908 41.1668ZM39.9076 10.6082C41.535 10.6082 43.0783 11.5167 44.2429 12.9494C45.407 14.3816 46.1158 16.2503 46.1158 17.9831H47.6993C47.6993 15.8499 46.8411 13.6353 45.4717 11.9506C44.1028 10.2665 42.1461 9.02461 39.9076 9.02461V10.6082ZM20.7742 9.02461C18.8271 9.02461 17.3191 9.02399 16.1122 9.12261C14.8959 9.22198 13.9157 9.42604 13.0368 9.87387L13.7558 11.2849C14.3742 10.9697 15.1228 10.7923 16.2411 10.7009C17.3687 10.6088 18.801 10.6082 20.7742 10.6082V9.02461ZM10.366 21.0164C10.366 19.0432 10.3666 17.6108 10.4588 16.4833C10.5501 15.365 10.7275 14.6164 11.0427 13.9979L9.63168 13.279C9.18385 14.1579 8.97979 15.1381 8.88042 16.3543C8.78181 17.5613 8.78242 19.0693 8.78242 21.0164H10.366ZM13.0368 9.87387C11.5707 10.6209 10.3787 11.8129 9.63168 13.279L11.0427 13.9979C11.6379 12.8298 12.5876 11.8801 13.7558 11.2849L13.0368 9.87387ZM22.7824 36.6497C22.7824 38.1454 21.5699 39.3579 20.0742 39.3579V40.9415C22.4445 40.9415 24.366 39.02 24.366 36.6497H22.7824ZM20.0742 39.3579C18.5785 39.3579 17.366 38.1454 17.366 36.6497H15.7824C15.7824 39.02 17.7039 40.9415 20.0742 40.9415V39.3579ZM17.366 36.6497C17.366 35.154 18.5785 33.9415 20.0742 33.9415V32.3579C17.7039 32.3579 15.7824 34.2795 15.7824 36.6497H17.366ZM20.0742 33.9415C21.5699 33.9415 22.7824 35.154 22.7824 36.6497H24.366C24.366 34.2795 22.4445 32.3579 20.0742 32.3579V33.9415ZM16.5742 25.7749H28.2409V24.1913H16.5742V25.7749ZM16.5742 17.6082H32.9076V16.0246H16.5742V17.6082ZM48.5488 31.9672L36.5358 43.9802L37.6556 45.1L49.6686 33.087L48.5488 31.9672ZM31.6431 39.4982L43.8615 27.2799L42.7417 26.1601L30.5234 38.3784L31.6431 39.4982ZM29.2779 47.8539L26.2101 48.4602L26.5171 50.0137L29.5849 49.4074L29.2779 47.8539ZM27.1344 49.4181L27.8765 46.2615L26.3349 45.8991L25.5928 49.0557L27.1344 49.4181ZM30.5234 38.3784C29.4234 39.4784 28.8084 40.0899 28.3098 40.7897L29.5995 41.7086C30.0039 41.141 30.507 40.6343 31.6431 39.4982L30.5234 38.3784ZM27.8765 46.2615C28.2442 44.6974 28.41 44.003 28.6796 43.3603L27.2194 42.7476C26.8869 43.54 26.6909 44.3848 26.3349 45.8991L27.8765 46.2615ZM28.3098 40.7897C27.875 41.4 27.5093 42.0566 27.2194 42.7476L28.6796 43.3603C28.9242 42.7774 29.2327 42.2234 29.5995 41.7086L28.3098 40.7897ZM36.5358 43.9802C35.3233 45.1928 34.7825 45.7295 34.1735 46.1536L35.0785 47.4532C35.8294 46.9302 36.4818 46.2738 37.6556 45.1L36.5358 43.9802ZM29.5849 49.4074C31.2134 49.0856 32.1219 48.909 32.9743 48.5762L32.3984 47.101C31.7071 47.3709 30.9601 47.5214 29.2779 47.8539L29.5849 49.4074ZM34.1735 46.1536C33.6212 46.5383 33.0254 46.8563 32.3984 47.101L32.9743 48.5762C33.7175 48.2861 34.4238 47.9091 35.0785 47.4532L34.1735 46.1536ZM48.5488 27.2799C49.8432 28.5742 49.8432 30.6728 48.5488 31.9672L49.6686 33.087C51.5814 31.1742 51.5814 28.0729 49.6686 26.1601L48.5488 27.2799ZM49.6686 26.1601C47.7558 24.2473 44.6545 24.2473 42.7417 26.1601L43.8615 27.2799C45.1559 25.9855 47.2545 25.9855 48.5488 27.2799L49.6686 26.1601Z" fill="#FCA522"/>
</svg>
