<svg width="80" height="80" viewBox="0 0 80 80" fill="none" xmlns="http://www.w3.org/2000/svg">
<rect width="80" height="80" rx="40" fill="white"/>
<path d="M61 40C61 51.598 51.598 61 40 61M61 40C61 28.402 51.598 19 40 19M61 40C61 43.866 51.598 47 40 47C28.402 47 19 43.866 19 40M61 40C61 36.134 51.598 33 40 33C28.402 33 19 36.134 19 40M40 61C28.402 61 19 51.598 19 40M40 61C36.134 61 33 51.598 33 40C33 28.402 36.134 19 40 19M40 61C43.866 61 47 51.598 47 40C47 28.402 43.866 19 40 19M19 40C19 28.402 28.402 19 40 19" stroke="#DD8500" stroke-width="2" stroke-linecap="round" stroke-linejoin="round"/>
</svg>
