<svg width="56" height="57" viewBox="0 0 56 57" fill="none" xmlns="http://www.w3.org/2000/svg">
<path d="M23.3333 39.3534V44.8167C23.3333 47.394 25.4227 49.4834 28 49.4834C30.5773 49.4834 32.6667 47.394 32.6667 44.8167V39.3534M28 7.4834V9.81673M9.33333 28.4834H7M13.0669 13.5503L11.6667 12.1501M42 13.5503L43.4006 12.1501M49 28.4834H46.6667M39.6667 28.4834C39.6667 34.9267 34.4433 40.1501 28 40.1501C21.5567 40.1501 16.3333 34.9267 16.3333 28.4834C16.3333 22.0401 21.5567 16.8167 28 16.8167C34.4433 16.8167 39.6667 22.0401 39.6667 28.4834Z" stroke="#FCA522" stroke-width="1.58359" stroke-linecap="round" stroke-linejoin="round"/>
</svg>
