<svg width="80" height="20" viewBox="0 0 80 20" fill="none" xmlns="http://www.w3.org/2000/svg">
<path d="M22.0073 2.33758V0.472168H32.4442V2.33758H28.1939V19.5277H26.2576V2.33758H22.0073Z" fill="white"/>
<path d="M34.1206 0.472168H36.0805L39.9766 14.1912L45.4311 0.472168H45.8325L51.2398 14.1912L55.2068 0.472168H57.143L51.6413 19.5277H51.2871L45.6436 5.12388L39.8821 19.5277H39.5279L34.1206 0.472168Z" fill="white"/>
<path d="M69.7282 0C72.609 0 75.0175 0.968125 76.9773 2.88076C78.9136 4.817 79.8817 7.17828 79.8817 9.9882C79.8817 12.7745 78.9136 15.1358 76.9773 17.0956C75.0411 19.0319 72.6798 20 69.8935 20C67.06 20 64.6751 19.0319 62.7388 17.0956C60.8026 15.1594 59.8345 12.8217 59.8345 10.0826C59.8345 8.24085 60.2831 6.56435 61.1568 4.98229C62.0305 3.40024 63.2583 2.19599 64.7695 1.2987C66.2808 0.425029 67.9336 0 69.7282 0ZM69.7991 1.8418C68.3823 1.8418 67.06 2.2196 65.7849 2.95159C64.5334 3.68359 63.5417 4.67533 62.8333 5.9268C62.1249 7.17828 61.7707 8.54782 61.7707 10.0826C61.7707 12.3495 62.5499 14.2621 64.132 15.8205C65.6904 17.379 67.6031 18.1582 69.7991 18.1582C71.2867 18.1582 72.6562 17.804 73.9077 17.072C75.1591 16.3636 76.1509 15.3719 76.8593 14.1204C77.5676 12.869 77.9218 11.4994 77.9218 9.96458C77.9218 8.45337 77.5676 7.08383 76.8593 5.85597C76.1509 4.6281 75.1591 3.65998 73.8841 2.92799C72.609 2.2196 71.2394 1.8418 69.7991 1.8418Z" fill="white"/>
<path d="M17.1665 2.88076C15.2302 0.944513 12.7981 0 9.91735 0C8.1464 0 6.46989 0.448644 4.95868 1.32232C3.42385 2.2196 2.2196 3.42385 1.34593 4.98229C0.448642 6.54073 0 8.24085 0 10.0826C0 12.8217 0.968122 15.1594 2.92798 17.0956C4.86423 19.0319 7.24911 20 10.0826 20C12.8689 20 15.2302 19.0319 17.1665 17.0956C19.1027 15.1594 20.0708 12.7745 20.0708 10.0118C20.0708 7.17828 19.1027 4.79339 17.1665 2.88076ZM4.39197 15.9622C4.32113 15.8914 4.25029 15.7969 4.20307 15.6789C3.84888 15.0177 4.03778 13.8607 4.74616 12.4439C6.3046 9.2562 9.96458 5.549 12.8926 4.17946C13.8607 3.73082 14.6399 3.58914 15.2066 3.73082C15.4427 3.77804 15.6316 3.8961 15.7733 4.03778C15.8914 4.15585 15.9858 4.34475 16.0567 4.53365C16.2692 5.21842 16.0567 6.28099 15.4427 7.55608C13.8843 10.7438 10.2243 14.451 7.29634 15.8205C6.56434 16.1511 5.9268 16.3164 5.43093 16.3164C5.17119 16.3164 4.93506 16.2692 4.74616 16.1747C4.60449 16.1275 4.48642 16.0567 4.39197 15.9622Z" fill="white"/>
</svg>
