<svg width="1502" height="1502" viewBox="0 0 1502 1502" fill="none" xmlns="http://www.w3.org/2000/svg">
<path d="M439.559 1171.4C410.504 1171.4 387.804 1163.23 372.368 1146.88C333.325 1107.84 342.404 1022.49 395.068 913.53C498.579 701.06 742.828 454.087 938.046 363.288C1027.03 321.521 1095.13 318.796 1129.63 353.3C1168.68 392.344 1159.6 477.695 1106.93 586.654C1003.42 799.123 759.172 1046.1 563.954 1136.9C515.831 1160.5 473.155 1171.4 439.559 1171.4ZM938.954 366.012L939.862 367.828C744.644 457.719 502.211 703.784 398.7 916.254C346.036 1023.4 337.865 1106.93 375.092 1145.07C407.78 1178.66 474.971 1175.03 562.138 1134.17C757.356 1044.28 999.789 798.215 1103.3 585.746C1155.96 478.603 1164.14 395.068 1126.91 356.932C1094.22 323.336 1027.03 326.968 939.862 367.828L938.954 366.012Z" fill="white"/>
<path d="M418.676 1177.76C385.08 1177.76 358.748 1167.77 342.404 1148.7C303.361 1103.3 317.889 1010.69 382.356 894.463C504.027 673.821 768.252 429.572 971.642 350.576C1060.62 315.165 1127.82 316.981 1160.5 354.208C1199.55 399.608 1185.02 492.223 1120.55 608.446C998.881 829.087 734.656 1073.34 531.266 1152.33C487.683 1168.68 449.547 1177.76 418.676 1177.76ZM1083.32 328.785C1052.45 328.785 1015.23 336.957 972.55 354.208C770.068 433.204 507.659 676.545 385.988 896.279C322.429 1011.59 307.901 1102.39 346.036 1145.98C376.908 1181.39 442.283 1182.3 529.451 1148.7C731.932 1069.7 994.341 826.363 1116.01 606.63C1179.57 491.315 1194.1 400.516 1155.96 356.932C1140.53 337.865 1116.01 328.785 1083.32 328.785Z" fill="white"/>
<path d="M399.608 1181.39C360.564 1181.39 330.601 1169.58 312.441 1146.88C272.489 1096.04 294.281 995.249 370.552 870.854C511.291 643.857 795.492 404.147 1005.24 337.864C1093.31 309.716 1158.69 316.072 1189.56 355.116C1229.51 405.963 1207.72 506.75 1131.45 631.145C990.71 858.143 706.509 1097.85 496.763 1164.14C460.443 1175.94 427.756 1181.39 399.608 1181.39ZM1102.39 324.244C1075.15 324.244 1042.47 329.692 1006.15 341.496C798.216 407.779 514.923 646.581 374.184 872.67C297.913 995.249 277.029 1094.22 315.165 1144.16C344.22 1182.3 408.688 1187.74 494.947 1159.6C702.877 1093.31 986.17 854.51 1126.91 628.421C1203.18 505.842 1224.06 406.871 1185.93 356.932C1168.68 335.14 1140.53 324.244 1102.39 324.244Z" fill="white"/>
<path d="M382.356 1185.02C336.048 1185.02 302.452 1170.49 282.477 1143.25C242.525 1085.14 271.581 977.089 361.472 845.431C521.278 612.985 825.455 380.54 1039.74 327.876C1127.82 306.085 1189.56 316.981 1219.52 358.748C1259.47 416.86 1230.42 524.91 1140.53 656.569C980.721 889.014 676.544 1121.46 462.259 1174.12C432.295 1181.39 405.963 1185.02 382.356 1185.02ZM1119.64 320.612C1096.94 320.612 1070.61 324.244 1040.65 331.508C827.271 384.172 524.002 615.709 365.104 847.247C276.121 977.09 247.065 1084.23 286.109 1140.53C314.256 1181.39 374.184 1191.38 460.443 1169.58C673.82 1116.92 977.089 885.383 1135.99 653.845C1224.97 524.002 1254.03 416.859 1214.98 360.564C1197.73 334.232 1165.04 320.612 1119.64 320.612Z" fill="white"/>
<path d="M367.828 1186.84C312.44 1186.84 273.397 1169.58 252.513 1135.99C212.561 1070.61 249.789 954.389 354.208 816.375C534.898 579.389 858.143 356.932 1076.06 319.704V321.52V319.704C1162.32 305.176 1222.25 320.612 1249.49 365.104C1289.44 430.479 1252.21 546.702 1147.79 684.716C968.009 921.702 644.765 1144.16 426.847 1180.48C405.055 1185.02 385.988 1186.84 367.828 1186.84ZM1134.17 318.796C1116.92 318.796 1097.85 320.612 1076.97 324.244C859.959 360.564 537.622 583.021 358.748 818.191C257.053 952.573 218.917 1069.7 257.053 1133.26C283.385 1175.94 341.496 1191.37 425.939 1176.85C642.949 1140.53 965.285 918.07 1144.16 682.9C1245.85 548.518 1283.99 431.387 1245.85 367.828C1225.88 336.048 1187.74 318.796 1134.17 318.796Z" fill="white"/>
<path d="M358.748 1187.74C291.557 1187.74 245.249 1166.86 224.366 1126C186.23 1053.36 233.446 925.334 351.484 784.595C551.242 544.886 892.647 335.14 1113.29 316.072C1197.73 308.808 1254.93 329.692 1279.45 376.908C1317.59 449.547 1270.37 577.573 1152.33 718.312C952.574 958.021 611.17 1167.77 390.528 1186.83C378.724 1186.83 368.736 1187.74 358.748 1187.74ZM1112.38 317.888V319.704C892.647 338.772 553.058 548.518 354.208 787.319C237.986 927.15 190.77 1052.45 227.998 1124.18C251.605 1169.58 307.901 1189.56 389.62 1182.29C609.354 1163.23 948.942 953.481 1147.79 714.68C1264.01 574.849 1311.23 449.547 1274 377.816C1250.39 332.416 1194.1 312.44 1112.38 319.704V317.888Z" fill="white"/>
<path d="M353.3 1187.74C271.581 1187.74 217.101 1161.41 195.309 1111.47C158.99 1029.75 217.101 893.555 349.668 749.184C569.401 509.475 928.058 313.349 1148.7 313.349C1230.42 313.349 1284.9 339.681 1306.69 389.62C1343.01 471.339 1284.9 607.538 1152.33 751.908C933.505 992.526 574.849 1187.74 353.3 1187.74ZM1148.7 317.889C928.966 317.889 571.217 512.199 352.392 751.908C220.733 895.371 163.53 1028.85 198.941 1109.66C219.825 1157.78 273.397 1183.2 353.3 1183.2C573.033 1183.2 930.782 988.894 1149.61 749.184C1281.27 605.722 1338.47 472.247 1303.06 391.436C1281.27 343.313 1228.6 317.889 1148.7 317.889Z" fill="white"/>
<path d="M353.301 1187.74C340.589 1187.74 327.877 1186.84 316.073 1185.93C237.986 1178.66 186.23 1146.88 167.163 1093.31C134.475 1001.61 202.574 858.143 350.577 711.048C590.286 471.339 964.378 294.281 1185.02 315.165C1263.11 322.429 1314.86 354.208 1333.93 407.78C1366.62 499.487 1298.52 642.949 1150.52 790.044C924.426 1017.04 576.666 1187.74 353.301 1187.74ZM1148.7 317.889C926.242 317.889 580.298 488.591 354.209 713.772C208.022 859.959 139.015 1001.61 171.702 1091.5C189.862 1142.34 240.71 1174.12 316.981 1181.39C535.807 1202.27 908.991 1025.21 1147.79 786.412C1293.98 640.225 1362.99 498.579 1330.3 408.688C1312.14 357.84 1261.29 326.061 1185.02 318.797C1173.22 318.797 1161.41 317.889 1148.7 317.889Z" fill="white"/>
<path d="M359.656 1188.65C331.508 1188.65 304.269 1185.93 279.753 1181.39C204.39 1165.95 156.266 1128.72 140.83 1071.52C112.683 968.918 192.586 819.099 356.024 670.189C615.709 434.111 1004.33 277.029 1222.25 320.613C1297.61 336.048 1345.73 373.276 1361.17 430.479C1389.32 533.082 1309.41 682.901 1145.98 831.811C915.346 1041.56 583.929 1188.65 359.656 1188.65ZM1141.44 317.889C918.978 317.889 588.469 464.983 358.748 673.821C197.126 820.915 117.223 968.918 145.37 1070.61C160.806 1125.09 207.114 1162.32 281.569 1176.85C306.084 1181.39 332.416 1184.11 360.564 1184.11C583.021 1184.11 913.53 1037.02 1143.25 828.179C1304.87 681.085 1384.78 533.082 1356.63 431.387C1341.19 376.908 1294.89 339.68 1220.43 325.152C1196.82 319.705 1169.58 317.889 1141.44 317.889Z" fill="white"/>
<path d="M373.276 1189.56C325.152 1189.56 281.569 1184.11 244.341 1171.4C171.702 1148.7 127.211 1104.21 116.315 1043.37C94.523 928.965 187.138 772.791 364.196 625.697C643.857 394.159 1044.28 261.593 1257.66 328.784C1330.3 351.484 1374.79 395.975 1385.69 456.811C1407.48 571.217 1314.86 727.392 1137.8 874.486C908.082 1066.07 595.734 1189.56 373.276 1189.56ZM1127.82 316.072C907.174 316.072 595.734 439.559 366.92 629.329C190.77 775.515 98.1549 929.874 119.947 1042.46C131.751 1101.48 174.426 1144.16 245.249 1166.86C456.811 1234.05 856.327 1101.48 1134.17 870.854C1310.32 724.668 1402.94 570.309 1381.15 457.719C1369.34 398.699 1326.67 356.024 1255.84 333.324C1218.61 322.428 1175.94 316.072 1127.82 316.072Z" fill="white"/>
<path d="M395.068 1192.28C324.245 1192.28 260.685 1181.39 209.838 1157.78C140.831 1126 100.879 1075.15 93.6153 1009.78C79.9955 883.566 185.322 722.852 376.908 579.389C675.637 355.116 1086.05 248.881 1293.07 343.312C1362.08 375.091 1402.03 425.939 1409.29 491.314C1422.91 617.525 1317.59 778.239 1126 921.702C900.819 1090.59 612.078 1192.28 395.068 1192.28ZM1106.02 313.348C889.923 313.348 602.998 415.043 378.724 583.021C188.954 725.576 83.6274 885.382 97.2472 1009.78C104.511 1073.34 143.555 1123.28 211.654 1154.15C416.86 1247.67 825.455 1141.44 1123.28 918.07C1313.05 775.515 1418.37 615.709 1404.75 491.314C1397.49 427.755 1358.45 377.815 1290.35 346.944C1239.5 324.244 1176.85 313.348 1106.02 313.348Z" fill="white"/>
<path d="M425.939 1198.64C326.968 1198.64 239.801 1180.48 176.242 1141.44C109.958 1101.48 74.5468 1042.46 72.7308 970.733C70.0069 832.718 188.954 668.372 392.343 530.358C709.232 316.072 1127.82 239.801 1325.76 361.471C1392.04 401.423 1427.45 460.442 1429.27 532.174C1431.99 670.188 1313.05 834.534 1109.66 972.549C894.462 1116.92 632.961 1198.64 425.939 1198.64ZM1076.06 307.9C869.038 307.9 609.353 389.619 395.067 533.99C193.494 671.096 74.5468 833.627 77.2708 969.825C79.0868 1039.74 113.59 1096.94 178.058 1136.9C374.184 1256.75 790.951 1181.39 1106.02 968.009C1307.6 830.902 1426.54 668.372 1423.82 532.174C1422 462.258 1387.5 405.055 1323.03 365.103C1260.38 326.06 1174.12 307.9 1076.06 307.9Z" fill="white"/>
<path d="M464.076 1207.72C333.325 1207.72 219.826 1178.66 144.463 1117.83C81.8118 1067.89 51.848 999.79 56.388 921.703C66.3759 772.792 199.85 606.63 413.228 477.695C747.369 275.214 1171.4 232.538 1357.54 382.356C1420.19 432.296 1450.15 500.395 1445.61 578.482C1435.63 727.393 1302.15 893.555 1088.77 1022.49C889.015 1144.16 657.478 1207.72 464.076 1207.72ZM1037.93 297.913C845.432 297.913 614.802 361.473 415.044 482.235C202.574 610.262 70.0078 775.516 60.9279 922.611C55.48 998.882 85.4437 1066.07 147.187 1115.1C332.417 1264.01 753.725 1221.34 1086.96 1019.77C1299.43 891.739 1431.99 726.485 1441.07 579.39C1446.52 503.119 1416.56 435.928 1354.81 386.896C1280.36 326.969 1167.77 297.913 1037.93 297.913Z" fill="white"/>
<path d="M508.566 1222.25C342.404 1222.25 198.034 1178.66 114.498 1091.5C55.4791 1029.75 30.9634 951.665 45.4912 866.314C70.915 707.416 218.009 542.162 438.651 424.123C789.135 237.077 1214.98 230.721 1387.5 410.503C1446.52 472.247 1471.04 550.334 1456.51 635.685C1431.08 794.583 1283.99 959.837 1063.35 1077.88C883.566 1174.12 683.808 1222.25 508.566 1222.25ZM993.433 283.385C819.099 283.385 620.249 331.508 440.467 427.755C220.733 544.886 74.5469 709.232 50.0312 866.314C36.4113 950.757 60.0191 1027.03 118.13 1087.86C289.741 1266.74 712.864 1260.38 1062.44 1073.34C1282.17 956.205 1428.36 791.859 1452.88 634.777C1466.5 550.334 1442.89 474.063 1384.78 413.227C1301.24 326.968 1158.69 283.385 993.433 283.385Z" fill="white"/>
<path d="M556.69 1242.22C353.301 1242.22 176.243 1179.57 87.2595 1058.81C31.8721 984.354 15.5283 894.463 40.044 800.032C82.7196 633.869 242.526 472.247 467.707 367.828C833.628 198.034 1258.57 232.538 1414.74 443.192C1470.13 517.647 1486.47 607.538 1461.96 701.969C1419.28 868.131 1259.47 1029.75 1034.29 1134.17C877.211 1206.81 710.141 1242.22 556.69 1242.22ZM945.31 263.41C793.676 263.41 626.606 298.821 469.523 371.46C245.25 474.971 86.3515 635.685 44.584 800.94C20.9762 894.463 36.412 982.538 90.8915 1056.09C246.158 1265.83 668.373 1298.52 1032.48 1130.54C1256.75 1027.03 1415.65 866.315 1458.32 701.061C1481.93 607.538 1466.5 519.463 1412.02 445.916C1323.03 326.061 1146.88 263.41 945.31 263.41Z" fill="white"/>
<path d="M605.722 1268.55C364.196 1268.55 153.542 1180.48 63.6514 1021.58C12.804 931.69 6.44805 829.087 43.6756 724.668C104.511 553.966 276.121 398.699 503.119 309.716C882.659 160.806 1303.06 237.985 1440.16 481.327C1491.01 571.218 1497.37 673.82 1460.14 778.239C1399.31 948.942 1227.69 1104.21 1000.7 1193.19C869.039 1244.04 732.84 1268.55 605.722 1268.55ZM897.187 237.077C770.068 237.077 634.777 261.593 504.027 312.44C277.937 401.423 107.235 555.782 46.3996 725.576C9.17198 829.087 16.4359 930.782 66.3754 1018.86C202.574 1260.38 620.249 1336.65 997.973 1188.65C1224.06 1099.67 1394.77 945.31 1455.6 775.515C1492.83 672.004 1485.56 570.31 1435.62 482.235C1346.64 324.244 1136.9 237.077 897.187 237.077Z" fill="white"/>
<path d="M650.213 1302.15C371.46 1302.15 127.21 1181.39 41.8594 978.906C-2.63212 871.763 1.90785 754.632 54.5713 639.317C133.566 467.707 316.072 321.521 542.162 248.882C933.506 123.579 1344.83 246.158 1460.14 523.095C1504.63 630.237 1500.09 747.368 1447.43 862.683C1368.43 1034.29 1185.93 1180.48 959.838 1253.12C856.327 1285.81 751 1302.15 650.213 1302.15ZM851.787 204.39C751 204.39 646.581 219.826 543.07 253.421C318.796 325.153 137.198 470.431 58.2033 641.133C5.53982 754.632 0.999855 870.855 45.4914 977.09C129.934 1178.66 372.368 1297.61 649.305 1297.61C750.092 1297.61 854.511 1282.17 958.022 1248.58C1182.3 1176.85 1363.89 1031.57 1442.89 860.867C1495.55 747.368 1500.09 631.145 1455.6 524.911C1372.07 323.337 1128.72 204.39 851.787 204.39Z" fill="white"/>
<path d="M688.348 1342.1C374.184 1342.1 98.1546 1181.39 24.6074 929.874C-12.6202 802.755 5.53958 669.281 77.2708 544.886C176.242 373.276 361.472 243.433 585.745 188.046C986.169 89.0747 1385.68 261.593 1476.48 572.126C1513.71 699.244 1495.55 832.719 1423.82 957.113C1324.85 1128.72 1139.62 1258.57 915.346 1313.95C839.075 1333.02 762.803 1342.1 688.348 1342.1ZM813.651 164.438C739.196 164.438 663.832 173.518 587.561 192.586C364.196 247.065 179.874 376 81.8108 546.702C10.9875 670.188 -7.17231 802.755 29.1473 928.966C101.787 1177.76 376 1337.56 688.348 1337.56C762.803 1337.56 838.167 1328.48 914.438 1309.41C1137.8 1254.03 1322.13 1125.09 1420.19 954.389C1491.01 830.903 1509.17 698.336 1472.85 572.126C1400.21 323.336 1126 164.438 813.651 164.438Z" fill="white"/>
<path d="M718.312 1388.41C369.644 1388.41 67.2832 1178.66 11.8958 876.303C-15.3439 728.3 20.0677 573.942 112.683 442.283C227.997 277.937 418.675 162.622 635.685 125.395C1043.37 56.3875 1426.54 280.661 1490.1 625.697C1517.34 773.7 1481.93 928.058 1389.32 1059.72C1274 1224.06 1083.32 1339.38 866.315 1376.61C816.375 1384.78 767.344 1388.41 718.312 1388.41ZM783.688 117.223C735.564 117.223 686.533 120.855 636.593 129.935C420.491 166.254 230.721 281.569 116.315 445.007C24.6077 575.758 -10.8039 728.3 16.4358 875.395C71.8232 1175.94 372.368 1383.87 719.22 1383.87C767.344 1383.87 816.375 1380.24 866.315 1371.16C1082.42 1334.84 1272.19 1219.52 1386.59 1056.08C1478.3 925.334 1513.71 772.792 1486.47 625.697C1430.18 326.061 1130.54 117.223 783.688 117.223Z" fill="white"/>
<path d="M739.196 1441.98C357.84 1441.98 34.5952 1173.22 3.72354 816.375C-29.8721 436.835 278.845 99.0626 691.072 63.651C890.83 46.3992 1084.23 100.879 1236.77 218.917C1389.32 336.048 1481.93 502.21 1498.28 685.624C1514.62 869.038 1451.97 1048.82 1322.13 1191.37C1192.28 1333.93 1010.68 1421.1 811.835 1439.26C787.319 1440.16 763.711 1441.98 739.196 1441.98ZM762.803 64.559C739.196 64.559 714.68 65.467 691.072 67.283C281.569 102.695 -25.3322 438.651 8.26349 815.467C39.1352 1170.49 360.564 1436.53 740.104 1436.53C763.711 1436.53 787.319 1435.62 810.927 1433.81C1009.78 1416.56 1189.56 1329.39 1318.49 1187.74C1447.43 1046.1 1510.08 868.13 1493.74 685.624C1477.39 503.118 1385.68 338.772 1234.05 221.641C1100.58 119.038 936.229 64.559 762.803 64.559Z" fill="white"/>
<path d="M751 1501C337.864 1501 1 1164.14 1 751C1 337.864 337.864 1 751 1C1164.14 1 1501 337.864 1501 751C1501 1164.14 1165.04 1501 751 1501ZM751 5.53995C339.68 5.53995 5.53995 339.68 5.53995 751C5.53995 1162.32 339.68 1496.46 751 1496.46C1162.32 1496.46 1496.46 1162.32 1496.46 751C1496.46 339.68 1162.32 5.53995 751 5.53995Z" fill="white" stroke="white" stroke-miterlimit="10"/>
</svg>
