<svg width="320" height="320" viewBox="0 0 320 320" fill="none" xmlns="http://www.w3.org/2000/svg">
<g clip-path="url(#clip0_422_1904)">
<path d="M94.3541 248.612C88.2297 248.612 83.445 246.89 80.1914 243.445C71.9617 235.215 73.8756 217.225 84.9761 194.258C106.794 149.474 158.278 97.6077 199.426 78.4689C218.182 69.6651 232.536 69.0909 239.809 76.3637C248.038 84.5933 246.124 102.584 235.024 125.55C213.206 170.335 161.722 222.392 120.574 241.531C110.431 246.316 101.435 248.612 94.3541 248.612ZM199.617 78.8517L199.809 79.2345C158.66 98.1819 107.56 150.048 85.7416 194.833C74.6411 217.416 72.9187 235.024 80.7655 243.062C87.6555 250.144 101.818 249.378 120.191 240.766C161.34 221.818 212.44 169.952 234.258 125.168C245.359 102.584 247.081 84.9761 239.234 76.9378C232.344 69.8565 218.182 70.622 199.809 79.2345L199.617 78.8517Z" fill="white" stroke="white" stroke-width="2" stroke-miterlimit="10"/>
<path d="M85.933 250.909C77.7034 250.909 71.3876 248.421 67.5598 243.636C59.1388 232.919 63.7321 211.675 79.8086 185.455C109.474 137.608 169.378 87.0814 213.589 73.1101C232.153 67.1771 245.933 68.5168 252.44 76.7464C260.861 87.4641 256.268 108.708 240.191 134.928C210.526 182.775 150.622 233.301 106.411 247.273C98.756 249.569 91.866 250.909 85.933 250.909ZM234.067 70.0479C228.325 70.0479 221.435 71.1962 213.78 73.6842C169.952 87.6555 110.239 137.99 80.5742 185.646C64.4976 211.483 60.0957 232.345 68.134 242.871C74.2584 250.909 87.8469 252.057 106.029 246.124C149.856 232.153 209.569 181.818 239.234 134.163C255.311 108.325 259.713 87.4642 251.675 76.9378C248.23 72.5359 242.105 70.0479 234.067 70.0479Z" fill="white" stroke="white" stroke-width="2" stroke-miterlimit="10"/>
<path d="M79.2345 251.866C67.5598 251.866 59.3301 248.23 54.9282 241.148C46.5072 227.368 54.3541 202.871 76.3636 173.78C114.258 123.828 182.392 76.9378 228.325 69.2823V69.6651V69.2823C246.507 66.2201 259.139 69.4737 264.88 78.8517C273.301 92.6316 265.455 117.129 243.445 146.22C205.55 196.172 137.416 243.062 91.4833 250.718C87.0813 251.483 83.0622 251.866 79.2345 251.866ZM240.766 69.0909C237.129 69.0909 233.11 69.4737 228.708 70.2392C182.967 77.8947 115.024 124.785 77.3206 174.354C55.8852 202.679 47.8469 227.368 55.8852 240.766C61.4354 249.761 73.6842 253.014 91.4833 249.952C137.225 242.297 205.167 195.407 242.871 145.837C264.306 117.512 272.345 92.823 264.306 79.4258C260.096 72.5359 252.057 69.0909 240.766 69.0909Z" fill="white" stroke="white" stroke-width="2" stroke-miterlimit="10"/>
<path d="M76.1722 252.058C58.9474 252.058 47.4641 246.507 42.8708 235.981C35.2153 218.756 47.4641 190.048 75.4067 159.617C121.722 109.091 197.321 67.7515 243.828 67.7515C261.053 67.7515 272.536 73.3017 277.129 83.828C284.785 101.053 272.536 129.761 244.593 160.192C198.469 210.909 122.871 252.058 76.1722 252.058ZM243.828 68.8998C197.512 68.8998 122.105 109.857 75.9809 160.383C48.2297 190.622 36.1722 218.756 43.6364 235.79C48.0383 245.933 59.3301 251.292 76.1722 251.292C122.488 251.292 197.895 210.335 244.019 159.809C271.77 129.57 283.828 101.436 276.364 84.4022C271.77 74.2586 260.67 68.8998 243.828 68.8998Z" fill="white" stroke="white" stroke-width="2" stroke-miterlimit="10"/>
<path d="M77.512 252.249C71.579 252.249 65.8373 251.675 60.6699 250.718C44.7847 247.464 34.6412 239.617 31.3876 227.56C25.4546 205.933 42.2967 174.354 76.7464 142.967C131.483 93.2059 213.397 60.0959 259.33 69.2825C275.215 72.5361 285.359 80.383 288.612 92.4404C294.545 114.067 277.703 145.646 243.254 177.034C194.641 221.244 124.785 252.249 77.512 252.249ZM242.297 68.7083C195.407 68.7083 125.742 99.7131 77.3206 143.732C43.2536 174.737 26.4115 205.933 32.3445 227.369C35.5981 238.852 45.3589 246.699 61.0526 249.761C66.2201 250.718 71.7703 251.292 77.7034 251.292C124.593 251.292 194.258 220.287 242.679 176.268C276.746 145.263 293.589 114.067 287.655 92.6318C284.402 81.1485 274.641 73.3016 258.947 70.2394C253.971 69.2825 248.421 68.7083 242.297 68.7083Z" fill="white" stroke="white" stroke-width="2" stroke-miterlimit="10"/>
<path d="M84.9761 253.206C70.0478 253.206 56.6507 250.909 45.933 245.933C31.3876 239.235 22.9665 228.517 21.4354 214.737C18.3732 188.134 40.7656 154.258 81.1483 124.019C144.115 76.7465 230.622 54.3542 274.258 74.2585C288.804 80.9571 297.225 91.6748 298.756 105.455C301.627 132.058 279.426 165.933 239.043 196.172C191.579 231.579 130.718 253.206 84.9761 253.206ZM234.833 67.7513C189.282 67.7513 128.804 89.1867 81.5311 124.593C41.5311 154.641 19.3301 188.325 22.201 214.546C23.7321 227.943 31.9617 238.469 46.3158 244.976C89.5694 264.689 175.694 242.297 238.469 195.215C278.469 165.168 300.67 131.483 297.799 105.263C296.268 91.8662 288.038 81.3398 273.684 74.8327C263.158 70.048 249.761 67.7513 234.833 67.7513Z" fill="white" stroke="white" stroke-width="2" stroke-miterlimit="10"/>
<path d="M99.5215 256.268C71.9617 256.268 48.0383 250.144 32.1531 237.321C18.9474 226.794 12.6316 212.44 13.5885 195.981C15.6938 164.593 43.8278 129.569 88.8038 102.392C159.234 59.7129 248.612 50.7177 287.847 82.2966C301.053 92.8229 307.368 107.177 306.411 123.636C304.306 155.024 276.172 190.048 231.196 217.225C189.091 242.871 140.287 256.268 99.5215 256.268ZM220.478 64.4976C179.904 64.4976 131.292 77.8947 89.1866 103.349C44.4019 130.335 16.4593 165.167 14.5455 196.172C13.3971 212.249 19.7129 226.411 32.7273 236.746C71.7703 268.134 160.574 259.139 230.813 216.651C275.598 189.665 303.541 154.833 305.455 123.828C306.603 107.751 300.287 93.5885 287.273 83.2536C271.579 70.622 247.847 64.4976 220.478 64.4976Z" fill="white" stroke="white" stroke-width="2" stroke-miterlimit="10"/>
<path d="M119.043 263.541C76.1723 263.541 38.8517 250.335 20.0957 224.88C8.42105 209.187 4.97607 190.239 10.1435 170.335C19.1388 135.311 52.823 101.244 100.287 79.2344C177.416 43.4449 266.986 50.7177 299.904 95.1196C311.579 110.813 315.024 129.761 309.856 149.665C300.861 184.689 267.177 218.756 219.713 240.766C186.603 256.077 151.388 263.541 119.043 263.541ZM200.957 57.4162C168.995 57.4162 133.78 64.8803 100.67 80.1913C53.3971 102.01 19.9043 135.694 11.1005 170.526C6.1244 190.239 9.37799 208.804 20.8612 224.306C53.5885 268.517 142.584 275.407 219.33 240C266.603 218.182 300.096 184.306 309.091 149.474C314.067 129.761 310.813 111.196 299.33 95.6937C280.574 70.4306 243.445 57.4162 200.957 57.4162Z" fill="white" stroke="white" stroke-width="2" stroke-miterlimit="10"/>
<path d="M138.756 276.172C80 276.172 28.5167 250.718 10.5263 208.038C1.14832 185.455 2.10526 160.574 13.2057 136.459C29.8565 100.287 68.3254 69.4738 115.981 54.1628C198.469 27.7513 285.167 53.5886 309.474 111.962C318.852 134.546 317.895 159.235 306.794 183.541C290.144 219.713 251.675 250.526 204.019 265.837C182.201 272.727 160 276.172 138.756 276.172ZM181.244 44.7848C160 44.7848 137.99 48.0384 116.172 55.1197C68.8995 70.2393 30.622 100.861 13.9713 136.842C3.0622 160.766 2.10526 185.263 11.4833 207.656C29.2823 250.144 80.3828 275.215 138.756 275.215C160 275.215 182.01 271.962 203.828 264.88C251.101 249.761 289.378 219.139 306.029 183.158C317.129 159.235 318.086 134.737 308.708 112.345C290.909 69.8566 239.617 44.7848 181.244 44.7848Z" fill="white" stroke="white" stroke-width="2" stroke-miterlimit="10"/>
<path d="M153.11 294.354C79.6172 294.354 15.8852 250.144 4.21053 186.412C-1.5311 155.215 5.93302 122.68 25.4546 94.9284C49.7608 60.2872 89.9522 35.981 135.694 28.3255C221.627 13.7801 302.392 61.0528 315.789 133.589C321.531 164.785 314.067 197.321 294.545 225.072C270.239 259.713 230.048 284.019 184.306 291.866C173.78 293.589 163.445 294.354 153.11 294.354ZM166.89 26.603C156.746 26.603 146.411 27.3686 135.885 29.2824C90.3349 36.938 50.3349 61.2442 26.2201 95.6939C6.88996 123.254 -0.574158 155.407 5.16747 186.412C16.8421 249.761 80.1914 293.589 153.301 293.589C163.445 293.589 173.78 292.823 184.306 290.909C229.856 283.254 269.857 258.948 293.971 224.498C313.301 196.938 320.766 164.785 315.024 133.78C303.158 70.4308 240 26.603 166.89 26.603Z" fill="white" stroke="white" stroke-width="2" stroke-miterlimit="10"/>
<path d="M160 318.086C72.9187 318.086 1.91388 247.273 1.91388 160C1.91388 72.9188 72.9187 1.91406 160 1.91406C247.081 1.91406 318.086 72.9188 318.086 160C318.086 247.273 247.273 318.086 160 318.086ZM160 2.871C73.3014 2.871 2.87082 73.3016 2.87082 160C2.87082 246.699 73.3014 317.129 160 317.129C246.699 317.129 317.129 246.699 317.129 160C317.129 73.3016 246.699 2.871 160 2.871Z" fill="white" stroke="white" stroke-width="2" stroke-miterlimit="10"/>
</g>
<defs>
<clipPath id="clip0_422_1904">
<rect width="320" height="320" fill="white"/>
</clipPath>
</defs>
</svg>
