<svg width="120" height="120" viewBox="0 0 120 120" fill="none" xmlns="http://www.w3.org/2000/svg">
<path d="M45 20L40 45M80 20L75 45M105 45H15M39 100H81C89.4008 100 93.6012 100 96.8098 98.3651C99.6323 96.927 101.927 94.6323 103.365 91.8099C105 88.6012 105 84.4008 105 76V44C105 35.5992 105 31.3988 103.365 28.1901C101.927 25.3677 99.6323 23.073 96.8098 21.6349C93.6012 20 89.4008 20 81 20H39C30.5992 20 26.3988 20 23.1901 21.6349C20.3677 23.073 18.073 25.3677 16.6349 28.1901C15 31.3988 15 35.5992 15 44V76C15 84.4008 15 88.6012 16.6349 91.8099C18.073 94.6323 20.3677 96.927 23.1901 98.3651C26.3988 100 30.5992 100 39 100ZM75 72.5L50 87.5V57.5L75 72.5Z" stroke="#A600FF" stroke-width="2" stroke-linecap="round" stroke-linejoin="round"/>
</svg>
