<svg width="57" height="57" viewBox="0 0 57 57" fill="none" xmlns="http://www.w3.org/2000/svg">
<path d="M21.8623 9.81641L19.529 21.4831M38.1956 9.81641L35.8623 21.4831M49.8623 21.4831H7.8623M19.0623 47.1497H38.6623C42.5827 47.1497 44.5429 47.1497 46.0402 46.3868C47.3574 45.7157 48.4282 44.6448 49.0994 43.3277C49.8623 41.8303 49.8623 39.8701 49.8623 35.9497V21.0164C49.8623 17.096 49.8623 15.1359 49.0994 13.6385C48.4282 12.3213 47.3574 11.2505 46.0402 10.5794C44.5429 9.81641 42.5827 9.81641 38.6623 9.81641H19.0623C15.1419 9.81641 13.1818 9.81641 11.6844 10.5794C10.3672 11.2505 9.29637 12.3213 8.62526 13.6385C7.8623 15.1359 7.8623 17.096 7.8623 21.0164V35.9497C7.8623 39.8701 7.8623 41.8303 8.62526 43.3277C9.29637 44.6448 10.3672 45.7157 11.6844 46.3868C13.1818 47.1497 15.1419 47.1497 19.0623 47.1497ZM35.8623 34.3164L24.1956 41.3164V27.3164L35.8623 34.3164Z" stroke="#FCA522" stroke-width="1.58359" stroke-linecap="round" stroke-linejoin="round"/>
</svg>
