<svg width="57" height="57" viewBox="0 0 57 57" fill="none" xmlns="http://www.w3.org/2000/svg">
<path d="M28.4831 49.9844L23.8164 47.651M28.4831 49.9844L33.1497 47.651M28.4831 49.9844V44.151M14.4831 42.9844L9.81641 40.651V34.8177M9.81641 23.151V17.3177M9.81641 17.3177L14.4831 14.9844M9.81641 17.3177L14.4831 19.651M23.8164 10.3177L28.4831 7.98438L33.1497 10.3177M42.4831 14.9844L47.1497 17.3177M47.1497 17.3177L42.4831 19.651M47.1497 17.3177V23.151M28.4831 26.651L23.8164 24.3177M28.4831 26.651L33.1497 24.3177M28.4831 26.651V32.4844M42.4831 42.9844L47.1497 40.651V34.8177" stroke="#FCA522" stroke-width="1.58359" stroke-linecap="round" stroke-linejoin="round"/>
</svg>
