<svg width="80" height="80" viewBox="0 0 80 80" fill="none" xmlns="http://www.w3.org/2000/svg">
<rect width="80" height="80" rx="40" fill="white"/>
<path d="M33 21.3335L30.6667 33.0002M49.3333 21.3335L47 33.0002M61 33.0002H19M30.2 58.6668H49.8C53.7204 58.6668 55.6805 58.6668 57.1779 57.9039C58.4951 57.2328 59.5659 56.1619 60.237 54.8448C61 53.3474 61 51.3872 61 47.4668V32.5335C61 28.6131 61 26.6529 60.237 25.1556C59.5659 23.8384 58.4951 22.7676 57.1779 22.0965C55.6805 21.3335 53.7204 21.3335 49.8 21.3335H30.2C26.2796 21.3335 24.3194 21.3335 22.8221 22.0965C21.5049 22.7676 20.4341 23.8384 19.763 25.1556C19 26.6529 19 28.6131 19 32.5335V47.4668C19 51.3872 19 53.3474 19.763 54.8448C20.4341 56.1619 21.5049 57.2328 22.8221 57.9039C24.3194 58.6668 26.2796 58.6668 30.2 58.6668ZM47 45.8335L35.3333 52.8335V38.8335L47 45.8335Z" stroke="#A600FF" stroke-width="2" stroke-linecap="round" stroke-linejoin="round"/>
</svg>
