<svg width="120" height="120" viewBox="0 0 120 120" fill="none" xmlns="http://www.w3.org/2000/svg">
<path d="M55 95L54.9787 55M54.9787 55C53.5477 51.9477 52.2497 49.0507 50.9564 46.7597C46.8122 39.4188 42.668 29.8215 35.0004 26.2896M54.9787 55C58.5206 62.5546 62.8781 71.0605 70.0004 73.6854M90 95L90.0004 71.9326M90.0004 71.9326C88.8014 72.531 87.7371 72.9794 86.9123 73.2977C82.5004 75 76.4619 76.0667 70.0004 73.6854M90.0004 71.9326C95.8805 68.9983 105 62.4594 105 50M70 95L70.0004 73.6854M90.0004 55L90.4796 31.8735M70.0004 50.4987V32.009M70.0004 32.009C76.7243 30.1904 83.3074 29.9853 86.9123 30.8367C102.876 34.6066 105 40 105 50M70.0004 32.009C66.5588 32.9399 63.0803 34.2935 59.9454 36.1445M105 95L105 50M15 95L15.0004 36.2383C15.0004 34.3749 15.0004 33.4431 15.3844 32.2897C15.6522 31.4852 16.4341 30.1677 17.012 29.5472C17.8405 28.6577 18.3744 28.3663 19.4423 27.7835C23.1665 25.7511 28.2045 24.1197 32.9784 25.5291C33.679 25.7359 34.3523 25.9911 35.0004 26.2896M35 95L35.0004 26.2896" stroke="#A600FF" stroke-width="2" stroke-linecap="round" stroke-linejoin="round"/>
</svg>
