<svg width="80" height="80" viewBox="0 0 80 80" fill="none" xmlns="http://www.w3.org/2000/svg">
<rect width="80" height="80" rx="40" fill="white"/>
<path d="M26.6995 23.6667H61L56.3333 40H29.2123M58.6667 49.3333H30.6667L26 19H19M33 58.6667C33 59.9553 31.9553 61 30.6667 61C29.378 61 28.3333 59.9553 28.3333 58.6667C28.3333 57.378 29.378 56.3333 30.6667 56.3333C31.9553 56.3333 33 57.378 33 58.6667ZM58.6667 58.6667C58.6667 59.9553 57.622 61 56.3333 61C55.0447 61 54 59.9553 54 58.6667C54 57.378 55.0447 56.3333 56.3333 56.3333C57.622 56.3333 58.6667 57.378 58.6667 58.6667Z" stroke="#A600FF" stroke-width="2" stroke-linecap="round" stroke-linejoin="round"/>
</svg>
