<svg width="80" height="80" viewBox="0 0 80 80" fill="none" xmlns="http://www.w3.org/2000/svg">
<rect width="80" height="80" rx="40" fill="white"/>
<path d="M27.4887 60.237L27.0347 61.1281L27.4887 60.237ZM24.4296 57.1779L23.5386 57.6319L23.5386 57.6319L24.4296 57.1779ZM55.5703 57.1779L56.4613 57.6319L56.4613 57.6319L55.5703 57.1779ZM52.5112 60.237L52.9652 61.1281L52.5112 60.237ZM52.5112 19.763L52.9652 18.8719L52.5112 19.763ZM55.5703 22.8221L56.4613 22.3681L56.4613 22.3681L55.5703 22.8221ZM27.4887 19.763L27.0347 18.8719L27.4887 19.763ZM24.4296 22.8221L23.5386 22.3681L23.5386 22.3681L24.4296 22.8221ZM44.6666 61V62C45.2189 62 45.6666 61.5523 45.6666 61H44.6666ZM35.3333 61H34.3333C34.3333 61.5523 34.781 62 35.3333 62V61ZM44.6666 40V39C44.1143 39 43.6666 39.4477 43.6666 40H44.6666ZM44.6666 42.3333H43.6666C43.6666 42.8856 44.1143 43.3333 44.6666 43.3333V42.3333ZM47 42.3333V43.3333C47.5522 43.3333 48 42.8856 48 42.3333H47ZM47 40H48C48 39.4477 47.5522 39 47 39V40ZM33 40V39C32.4477 39 32 39.4477 32 40H33ZM33 42.3333H32C32 42.8856 32.4477 43.3333 33 43.3333V42.3333ZM35.3333 42.3333V43.3333C35.8856 43.3333 36.3333 42.8856 36.3333 42.3333H35.3333ZM35.3333 40H36.3333C36.3333 39.4477 35.8856 39 35.3333 39V40ZM33 28.3333V27.3333C32.4477 27.3333 32 27.781 32 28.3333H33ZM33 30.6667H32C32 31.219 32.4477 31.6667 33 31.6667V30.6667ZM35.3333 30.6667V31.6667C35.8856 31.6667 36.3333 31.219 36.3333 30.6667H35.3333ZM35.3333 28.3333H36.3333C36.3333 27.781 35.8856 27.3333 35.3333 27.3333V28.3333ZM44.6666 28.3333V27.3333C44.1143 27.3333 43.6666 27.781 43.6666 28.3333H44.6666ZM44.6666 30.6667H43.6666C43.6666 31.219 44.1143 31.6667 44.6666 31.6667V30.6667ZM47 30.6667V31.6667C47.5522 31.6667 48 31.219 48 30.6667H47ZM47 28.3333H48C48 27.781 47.5522 27.3333 47 27.3333V28.3333ZM34.8666 20H45.1333V18H34.8666V20ZM55.3333 30.2V49.8H57.3333V30.2H55.3333ZM45.1333 60H34.8666V62H45.1333V60ZM24.6666 49.8V30.2H22.6666V49.8H24.6666ZM34.8666 60C32.8899 60 31.4676 59.9992 30.3505 59.908C29.245 59.8176 28.5269 59.6437 27.9427 59.346L27.0347 61.1281C27.9479 61.5933 28.9585 61.8009 30.1876 61.9013C31.405 62.0008 32.9229 62 34.8666 62V60ZM22.6666 49.8C22.6666 51.7437 22.6658 53.2616 22.7653 54.479C22.8657 55.7081 23.0733 56.7188 23.5386 57.6319L25.3206 56.7239C25.0229 56.1397 24.849 55.4216 24.7587 54.3162C24.6674 53.1991 24.6666 51.7767 24.6666 49.8H22.6666ZM27.9427 59.346C26.8137 58.7708 25.8958 57.8529 25.3206 56.7239L23.5386 57.6319C24.3056 59.1372 25.5294 60.3611 27.0347 61.1281L27.9427 59.346ZM55.3333 49.8C55.3333 51.7767 55.3325 53.1991 55.2412 54.3162C55.1509 55.4216 54.977 56.1397 54.6793 56.7239L56.4613 57.6319C56.9266 56.7188 57.1342 55.7081 57.2346 54.479C57.3341 53.2616 57.3333 51.7437 57.3333 49.8H55.3333ZM45.1333 62C47.077 62 48.5949 62.0008 49.8123 61.9013C51.0414 61.8009 52.0521 61.5933 52.9652 61.1281L52.0572 59.346C51.473 59.6437 50.7549 59.8176 49.6494 59.908C48.5324 59.9992 47.11 60 45.1333 60V62ZM54.6793 56.7239C54.1041 57.8529 53.1862 58.7708 52.0572 59.346L52.9652 61.1281C54.4705 60.3611 55.6944 59.1372 56.4613 57.6319L54.6793 56.7239ZM45.1333 20C47.11 20 48.5324 20.0008 49.6494 20.092C50.7549 20.1824 51.473 20.3563 52.0572 20.654L52.9652 18.8719C52.0521 18.4067 51.0414 18.1991 49.8123 18.0987C48.5949 17.9992 47.077 18 45.1333 18V20ZM57.3333 30.2C57.3333 28.2563 57.3341 26.7384 57.2346 25.521C57.1342 24.2919 56.9266 23.2812 56.4613 22.3681L54.6793 23.2761C54.977 23.8603 55.1509 24.5784 55.2412 25.6838C55.3325 26.8009 55.3333 28.2233 55.3333 30.2H57.3333ZM52.0572 20.654C53.1862 21.2292 54.1041 22.1471 54.6793 23.2761L56.4613 22.3681C55.6944 20.8628 54.4705 19.6389 52.9652 18.8719L52.0572 20.654ZM34.8666 18C32.9229 18 31.405 17.9992 30.1876 18.0987C28.9585 18.1991 27.9479 18.4067 27.0347 18.8719L27.9427 20.654C28.5269 20.3563 29.245 20.1824 30.3505 20.092C31.4676 20.0008 32.8899 20 34.8666 20V18ZM24.6666 30.2C24.6666 28.2233 24.6674 26.8009 24.7587 25.6838C24.849 24.5784 25.0229 23.8603 25.3206 23.2761L23.5386 22.3681C23.0733 23.2812 22.8657 24.2919 22.7653 25.521C22.6658 26.7384 22.6666 28.2563 22.6666 30.2H24.6666ZM27.0347 18.8719C25.5294 19.6389 24.3056 20.8628 23.5386 22.3681L25.3206 23.2761C25.8958 22.1471 26.8137 21.2292 27.9427 20.654L27.0347 18.8719ZM43.6666 54V61H45.6666V54H43.6666ZM44.6666 60H35.3333V62H44.6666V60ZM36.3333 61V54H34.3333V61H36.3333ZM40 50.3333C42.025 50.3333 43.6666 51.975 43.6666 54H45.6666C45.6666 50.8704 43.1296 48.3333 40 48.3333V50.3333ZM40 48.3333C36.8703 48.3333 34.3333 50.8704 34.3333 54H36.3333C36.3333 51.975 37.9749 50.3333 40 50.3333V48.3333ZM43.6666 40V42.3333H45.6666V40H43.6666ZM44.6666 43.3333H47V41.3333H44.6666V43.3333ZM48 42.3333V40H46V42.3333H48ZM47 39H44.6666V41H47V39ZM32 40V42.3333H34V40H32ZM33 43.3333H35.3333V41.3333H33V43.3333ZM36.3333 42.3333V40H34.3333V42.3333H36.3333ZM35.3333 39H33V41H35.3333V39ZM32 28.3333V30.6667H34V28.3333H32ZM33 31.6667H35.3333V29.6667H33V31.6667ZM36.3333 30.6667V28.3333H34.3333V30.6667H36.3333ZM35.3333 27.3333H33V29.3333H35.3333V27.3333ZM43.6666 28.3333V30.6667H45.6666V28.3333H43.6666ZM44.6666 31.6667H47V29.6667H44.6666V31.6667ZM48 30.6667V28.3333H46V30.6667H48ZM47 27.3333H44.6666V29.3333H47V27.3333Z" fill="#DD8500"/>
</svg>
