<svg width="80" height="80" viewBox="0 0 80 80" fill="none" xmlns="http://www.w3.org/2000/svg">
<rect width="80" height="80" rx="40" fill="white"/>
<path d="M30.7723 58.4336L30.4601 59.3836L30.7723 58.4336ZM27.3591 54.8608L28.2307 54.3705L27.3591 54.8608ZM29.0796 57.4436L28.4046 58.1814L29.0796 57.4436ZM52.6409 54.8608L53.5125 55.351L53.5125 55.351L52.6409 54.8608ZM50.9204 57.4436L51.5954 58.1814L50.9204 57.4436ZM49.2277 58.4336L49.5399 59.3836L49.2277 58.4336ZM58.9409 36.3395L59.8125 35.8493L59.8125 35.8493L58.9409 36.3395ZM60.2147 39.0504L59.2356 39.2539L60.2147 39.0504ZM58.9409 43.6608L58.0693 43.1705L58.0693 43.1705L58.9409 43.6608ZM60.2147 40.9499L59.2356 40.7464L60.2147 40.9499ZM49.2277 21.5668L49.5399 20.6168L49.5399 20.6168L49.2277 21.5668ZM52.6409 25.1395L51.7693 25.6298L51.7693 25.6298L52.6409 25.1395ZM50.9204 22.5568L50.2455 23.2946L50.9204 22.5568ZM27.3591 25.1395L26.4875 24.6493L26.4875 24.6493L27.3591 25.1395ZM29.0796 22.5568L29.7545 23.2946L29.0796 22.5568ZM30.7723 21.5668L30.4601 20.6168L30.4601 20.6168L30.7723 21.5668ZM21.0591 36.3395L21.9307 36.8298L21.0591 36.3395ZM19.7853 39.0504L20.7644 39.2539L19.7853 39.0504ZM21.0591 43.6608L21.9307 43.1705L21.0591 43.6608ZM19.7853 40.9499L20.7644 40.7464L19.7853 40.9499ZM40.8717 45.3969L40.1675 44.6868L40.1675 44.6868L40.8717 45.3969ZM37.049 49.1877L37.7532 49.8977L37.7532 49.8977L37.049 49.1877ZM36.2525 48.3977L35.5483 49.1078L35.5483 49.1078L36.2525 48.3977ZM29.139 55.6234C28.7468 56.0123 28.7442 56.6455 29.1331 57.0376C29.522 57.4298 30.1551 57.4324 30.5473 57.0436L29.139 55.6234ZM25.6167 48.52L26.337 49.2137L26.337 49.2137L25.6167 48.52ZM24.1131 48.6398C23.7299 49.0376 23.7419 49.6707 24.1397 50.0538C24.5375 50.4369 25.1705 50.425 25.5536 50.0272L24.1131 48.6398ZM53.2718 48.8522C53.6503 49.2544 54.2832 49.2735 54.6854 48.895C55.0875 48.5165 55.1067 47.8836 54.7282 47.4815L53.2718 48.8522ZM51.5665 45.5812L50.8383 46.2666L50.8383 46.2666L51.5665 45.5812ZM32.353 45.2602L32.6538 44.3066L32.6538 44.3066L32.353 45.2602ZM29.443 45.2937L29.7658 46.2402L29.7658 46.2402L29.443 45.2937ZM44.8098 42.2314L45.1074 43.1861L45.1074 43.1861L44.8098 42.2314ZM47.7398 42.2819L47.4095 43.2258L47.4095 43.2258L47.7398 42.2819ZM34.1667 30.8335C33.6144 30.8335 33.1667 31.2812 33.1667 31.8335C33.1667 32.3858 33.6144 32.8335 34.1667 32.8335V30.8335ZM34.19 32.8335C34.7423 32.8335 35.19 32.3858 35.19 31.8335C35.19 31.2812 34.7423 30.8335 34.19 30.8335V32.8335ZM21.9307 36.8298L28.2307 25.6298L26.4875 24.6493L20.1875 35.8493L21.9307 36.8298ZM33.8669 22.3335H46.1331V20.3335H33.8669V22.3335ZM51.7693 25.6298L58.0693 36.8298L59.8125 35.8493L53.5125 24.6493L51.7693 25.6298ZM58.0693 43.1705L51.7693 54.3705L53.5125 55.351L59.8125 44.151L58.0693 43.1705ZM46.1331 57.6668H33.8669V59.6668H46.1331V57.6668ZM28.2307 54.3705L21.9307 43.1705L20.1875 44.151L26.4875 55.351L28.2307 54.3705ZM33.8669 57.6668C32.2086 57.6668 31.6061 57.6549 31.0845 57.4835L30.4601 59.3836C31.3582 59.6787 32.3454 59.6668 33.8669 59.6668V57.6668ZM26.4875 55.351C27.2334 56.6771 27.7071 57.5434 28.4046 58.1814L29.7545 56.7057C29.3494 56.3351 29.0436 55.8158 28.2307 54.3705L26.4875 55.351ZM31.0845 57.4835C30.5911 57.3214 30.1377 57.0562 29.7545 56.7057L28.4046 58.1814C28.9969 58.7232 29.6975 59.133 30.4601 59.3836L31.0845 57.4835ZM51.7693 54.3705C50.9564 55.8158 50.6506 56.3351 50.2455 56.7057L51.5954 58.1814C52.2929 57.5434 52.7666 56.6771 53.5125 55.351L51.7693 54.3705ZM46.1331 59.6668C47.6546 59.6668 48.6418 59.6787 49.5399 59.3836L48.9155 57.4835C48.3939 57.6549 47.7914 57.6668 46.1331 57.6668V59.6668ZM50.2455 56.7057C49.8623 57.0562 49.4089 57.3214 48.9155 57.4835L49.5399 59.3836C50.3025 59.133 51.0031 58.7232 51.5954 58.1814L50.2455 56.7057ZM58.0693 36.8298C58.8526 38.2223 59.1275 38.7336 59.2356 39.2539L61.1938 38.8469C61.0076 37.9513 60.5314 37.1274 59.8125 35.8493L58.0693 36.8298ZM59.8125 44.151C60.5314 42.873 61.0076 42.049 61.1938 41.1535L59.2356 40.7464C59.1275 41.2667 58.8526 41.778 58.0693 43.1705L59.8125 44.151ZM59.2356 39.2539C59.338 39.7462 59.338 40.2542 59.2356 40.7464L61.1938 41.1535C61.3519 40.3927 61.3519 39.6076 61.1938 38.8469L59.2356 39.2539ZM46.1331 22.3335C47.7914 22.3335 48.3939 22.3454 48.9155 22.5168L49.5399 20.6168C48.6418 20.3216 47.6546 20.3335 46.1331 20.3335V22.3335ZM53.5125 24.6493C52.7666 23.3232 52.2929 22.4569 51.5954 21.8189L50.2455 23.2946C50.6506 23.6652 50.9564 24.1845 51.7693 25.6298L53.5125 24.6493ZM48.9155 22.5168C49.4089 22.6789 49.8623 22.9441 50.2455 23.2946L51.5954 21.8189C51.0031 21.2771 50.3025 20.8674 49.5399 20.6168L48.9155 22.5168ZM28.2307 25.6298C29.0436 24.1845 29.3494 23.6652 29.7545 23.2946L28.4046 21.8189C27.7071 22.4569 27.2334 23.3232 26.4875 24.6493L28.2307 25.6298ZM33.8669 20.3335C32.3454 20.3335 31.3582 20.3216 30.4601 20.6168L31.0845 22.5168C31.6061 22.3454 32.2086 22.3335 33.8669 22.3335V20.3335ZM29.7545 23.2946C30.1377 22.9441 30.5911 22.6789 31.0845 22.5168L30.4601 20.6168C29.6975 20.8674 28.9969 21.2771 28.4046 21.8189L29.7545 23.2946ZM20.1875 35.8493C19.4686 37.1274 18.9924 37.9513 18.8062 38.8469L20.7644 39.2539C20.8725 38.7336 21.1474 38.2223 21.9307 36.8298L20.1875 35.8493ZM21.9307 43.1705C21.1474 41.778 20.8725 41.2667 20.7644 40.7464L18.8062 41.1535C18.9924 42.049 19.4686 42.873 20.1875 44.151L21.9307 43.1705ZM18.8062 38.8469C18.6481 39.6076 18.6481 40.3927 18.8062 41.1535L20.7644 40.7464C20.662 40.2542 20.662 39.7462 20.7644 39.2539L18.8062 38.8469ZM40.1675 44.6868L36.3449 48.4776L37.7532 49.8977L41.5758 46.1069L40.1675 44.6868ZM37.7532 48.4776L36.9566 47.6877L35.5483 49.1078L36.3449 49.8977L37.7532 48.4776ZM36.3449 48.4776L29.139 55.6234L30.5473 57.0436L37.7532 49.8977L36.3449 48.4776ZM24.8965 47.8264L24.1131 48.6398L25.5536 50.0272L26.337 49.2137L24.8965 47.8264ZM54.7282 47.4815L52.2947 44.8959L50.8383 46.2666L53.2718 48.8522L54.7282 47.4815ZM36.9566 47.6877C36.0282 46.767 35.2894 46.0333 34.6457 45.492C33.9931 44.9432 33.3713 44.5329 32.6538 44.3066L32.0521 46.2139C32.4134 46.3279 32.8011 46.554 33.3585 47.0227C33.9247 47.4988 34.5963 48.1637 35.5483 49.1078L36.9566 47.6877ZM26.337 49.2137C27.2671 48.248 27.9232 47.5678 28.4783 47.0788C29.0248 46.5974 29.4072 46.3625 29.7658 46.2402L29.1203 44.3472C28.4083 44.59 27.796 45.0144 27.1563 45.5781C26.5251 46.1341 25.8035 46.8846 24.8965 47.8264L26.337 49.2137ZM32.6538 44.3066C31.5018 43.9431 30.2637 43.9574 29.1203 44.3472L29.7658 46.2402C30.5056 45.9879 31.3067 45.9787 32.0521 46.2139L32.6538 44.3066ZM41.5758 46.1069C42.5377 45.153 43.2165 44.4811 43.7885 44.0003C44.3518 43.527 44.7432 43.2996 45.1074 43.1861L44.5122 41.2767C43.7883 41.5024 43.1606 41.9156 42.5019 42.4692C41.8519 43.0153 41.1057 43.7565 40.1675 44.6868L41.5758 46.1069ZM52.2947 44.8959C51.3892 43.9338 50.6689 43.1673 50.0382 42.5991C49.3989 42.0232 48.7859 41.5885 48.0701 41.3381L47.4095 43.2258C47.7695 43.3518 48.1529 43.5925 48.6995 44.085C49.2547 44.5852 49.9099 45.2801 50.8383 46.2666L52.2947 44.8959ZM45.1074 43.1861C45.8591 42.9518 46.6663 42.9657 47.4095 43.2258L48.0701 41.3381C46.9215 40.9361 45.674 40.9146 44.5122 41.2767L45.1074 43.1861ZM34.1667 32.8335H34.19V30.8335H34.1667V32.8335ZM34.3333 31.8335C34.3333 31.9255 34.2587 32.0002 34.1667 32.0002V34.0002C35.3633 34.0002 36.3333 33.0301 36.3333 31.8335H34.3333ZM34.1667 32.0002C34.0746 32.0002 34 31.9255 34 31.8335H32C32 33.0301 32.97 34.0002 34.1667 34.0002V32.0002ZM34 31.8335C34 31.7414 34.0746 31.6668 34.1667 31.6668V29.6668C32.97 29.6668 32 30.6369 32 31.8335H34ZM34.1667 31.6668C34.2587 31.6668 34.3333 31.7414 34.3333 31.8335H36.3333C36.3333 30.6369 35.3633 29.6668 34.1667 29.6668V31.6668Z" fill="#DD8500"/>
</svg>
