<svg width="80" height="80" viewBox="0 0 80 80" fill="none" xmlns="http://www.w3.org/2000/svg">
<rect width="80" height="80" rx="40" fill="white"/>
<path d="M35.3333 50.87V56.3333C35.3333 58.9106 37.4227 61 40 61C42.5773 61 44.6667 58.9106 44.6667 56.3333V50.87M40 19V21.3333M21.3333 40H19M25.0669 25.0669L23.6667 23.6667M54 25.0669L55.4006 23.6667M61 40H58.6667M51.6667 40C51.6667 46.4433 46.4433 51.6667 40 51.6667C33.5567 51.6667 28.3333 46.4433 28.3333 40C28.3333 33.5567 33.5567 28.3333 40 28.3333C46.4433 28.3333 51.6667 33.5567 51.6667 40Z" stroke="#A600FF" stroke-width="2" stroke-linecap="round" stroke-linejoin="round"/>
</svg>
