<svg width="80" height="80" viewBox="0 0 80 80" fill="none" xmlns="http://www.w3.org/2000/svg">
<rect width="80" height="80" rx="40" fill="white"/>
<path d="M49.3334 37.6667H44.6667M49.3334 49.3333H44.6667M30.6667 37.6667L33 40L37.6667 35.3333M30.6667 49.3333L33 51.6667L37.6667 47M49.3334 23.6667C53.1993 23.6667 56.3334 26.8007 56.3334 30.6667V49.8C56.3334 53.7204 56.3334 55.6806 55.5704 57.1779C54.8993 58.4951 53.8284 59.5659 52.5113 60.237C51.0139 61 49.0537 61 45.1334 61H34.8667C30.9463 61 28.9861 61 27.4888 60.237C26.1716 59.5659 25.1008 58.4951 24.4296 57.1779C23.6667 55.6806 23.6667 53.7204 23.6667 49.8V30.6667C23.6667 26.8007 26.8007 23.6667 30.6667 23.6667M30.6667 28.3333H49.3334V22.9832C49.3334 21.9268 48.9137 20.9137 48.1667 20.1667C47.4197 19.4197 46.4065 19 45.3501 19H34.6499C33.5935 19 32.5804 19.4197 31.8334 20.1667C31.0863 20.9137 30.6667 21.9268 30.6667 22.9832V28.3333Z" stroke="#DD8500" stroke-width="2" stroke-linecap="round" stroke-linejoin="round"/>
</svg>
