<svg width="80" height="80" viewBox="0 0 80 80" fill="none" xmlns="http://www.w3.org/2000/svg">
<rect width="80" height="80" rx="40" fill="white"/>
<path d="M40 61L35.3334 58.6667M40 61L44.6667 58.6667M40 61V55.1667M26 54L21.3334 51.6667V45.8333M21.3334 34.1667V28.3333M21.3334 28.3333L26 26M21.3334 28.3333L26 30.6667M35.3334 21.3333L40 19L44.6667 21.3333M54 26L58.6667 28.3333M58.6667 28.3333L54 30.6667M58.6667 28.3333V34.1667M40 37.6667L35.3334 35.3333M40 37.6667L44.6667 35.3333M40 37.6667V43.5M54 54L58.6667 51.6667V45.8333" stroke="#DD8500" stroke-width="2" stroke-linecap="round" stroke-linejoin="round"/>
</svg>
