<svg width="57" height="57" viewBox="0 0 57 57" fill="none" xmlns="http://www.w3.org/2000/svg">
<path d="M26.529 45.318L26.519 26.6514M26.519 26.6514C25.8512 25.227 25.2455 23.875 24.6419 22.8059C22.708 19.3802 20.774 14.9014 17.1958 13.2532M26.519 26.6514C28.1719 30.1768 30.2054 34.1463 33.5292 35.3712M42.8623 45.318L42.8625 34.5533M42.8625 34.5533C42.303 34.8325 41.8063 35.0418 41.4214 35.1903C39.3625 35.9847 36.5445 36.4825 33.5292 35.3712M42.8625 34.5533C45.6065 33.1839 49.8625 30.1324 49.8625 24.318M33.529 45.318L33.5292 35.3712M42.8625 26.6514L43.0861 15.859M33.5292 24.5507V15.9222M33.5292 15.9222C36.667 15.0735 39.7391 14.9779 41.4214 15.3751C48.8711 17.1344 49.8625 19.6514 49.8625 24.318M33.5292 15.9222C31.9231 16.3566 30.2998 16.9883 28.8368 17.8521M49.8623 45.318L49.8625 24.318M7.8623 45.318L7.86248 17.8959C7.86248 17.0263 7.86249 16.5915 8.04167 16.0532C8.16667 15.6778 8.53155 15.063 8.80125 14.7734C9.18787 14.3583 9.43704 14.2223 9.93537 13.9503C11.6733 13.0019 14.0244 12.2405 16.2522 12.8983C16.5792 12.9948 16.8934 13.1139 17.1958 13.2532M17.1956 45.318L17.1958 13.2532" stroke="#FCA522" stroke-width="1.58359" stroke-linecap="round" stroke-linejoin="round"/>
</svg>
