<svg width="80" height="80" viewBox="0 0 80 80" fill="none" xmlns="http://www.w3.org/2000/svg">
<rect width="80" height="80" rx="40" fill="white"/>
<path d="M37.0489 49.1877L40.8716 45.3969C42.7716 43.5127 43.7216 42.5706 44.8097 42.2314C45.7664 41.9332 46.7938 41.9509 47.7397 42.2819C48.8155 42.6584 49.7324 43.6327 51.5664 45.5812L53.9999 48.1668M37.0489 49.1877L36.2523 48.3977C34.3719 46.5329 33.4316 45.6006 32.3529 45.2602C31.4041 44.9609 30.3845 44.9727 29.4429 45.2937C28.3722 45.6587 27.4537 46.6125 25.6166 48.52L24.8332 49.3335M37.0489 49.1877L29.843 56.3335M34.1665 31.8335H34.1899M33.8667 58.6668H46.133C47.7228 58.6668 48.5178 58.6668 49.2276 58.4336C49.8556 58.2272 50.4326 57.8897 50.9203 57.4436C51.4716 56.9393 51.8613 56.2464 52.6408 54.8608L58.9408 43.6608C59.6919 42.3255 60.0674 41.6579 60.2146 40.9499C60.3448 40.3235 60.3448 39.6769 60.2146 39.0504C60.0674 38.3425 59.6919 37.6748 58.9408 36.3395L52.6408 25.1395C51.8613 23.7539 51.4716 23.0611 50.9203 22.5568C50.4326 22.1106 49.8556 21.7732 49.2276 21.5668C48.5178 21.3335 47.7228 21.3335 46.133 21.3335H33.8667C32.2769 21.3335 31.482 21.3335 30.7722 21.5668C30.1442 21.7732 29.5672 22.1106 29.0794 22.5568C28.5281 23.0611 28.1384 23.7539 27.359 25.1395L21.059 36.3395C20.3079 37.6748 19.9323 38.3425 19.7852 39.0504C19.6549 39.6769 19.6549 40.3235 19.7852 40.9499C19.9323 41.6579 20.3079 42.3255 21.059 43.6608L27.359 54.8608C28.1384 56.2464 28.5281 56.9393 29.0794 57.4436C29.5672 57.8897 30.1442 58.2272 30.7722 58.4336C31.482 58.6668 32.2769 58.6668 33.8667 58.6668ZM35.3332 31.8335C35.3332 32.4778 34.8109 33.0002 34.1665 33.0002C33.5222 33.0002 32.9999 32.4778 32.9999 31.8335C32.9999 31.1892 33.5222 30.6668 34.1665 30.6668C34.8109 30.6668 35.3332 31.1892 35.3332 31.8335Z" stroke="#A600FF" stroke-width="2" stroke-linecap="round" stroke-linejoin="round"/>
</svg>
