<svg width="80" height="80" viewBox="0 0 80 80" fill="none" xmlns="http://www.w3.org/2000/svg">
<rect width="80" height="80" rx="40" fill="white"/>
<path d="M36.3333 50.87C36.3333 50.3177 35.8856 49.87 35.3333 49.87C34.781 49.87 34.3333 50.3177 34.3333 50.87H36.3333ZM45.6667 50.87C45.6667 50.3177 45.219 49.87 44.6667 49.87C44.1144 49.87 43.6667 50.3177 43.6667 50.87H45.6667ZM41 19C41 18.4477 40.5523 18 40 18C39.4477 18 39 18.4477 39 19H41ZM39 21.3333C39 21.8856 39.4477 22.3333 40 22.3333C40.5523 22.3333 41 21.8856 41 21.3333H39ZM21.3333 41C21.8856 41 22.3333 40.5523 22.3333 40C22.3333 39.4477 21.8856 39 21.3333 39V41ZM19 39C18.4477 39 18 39.4477 18 40C18 40.5523 18.4477 41 19 41V39ZM24.3598 25.774C24.7503 26.1645 25.3835 26.1645 25.774 25.774C26.1645 25.3835 26.1645 24.7503 25.774 24.3598L24.3598 25.774ZM24.3738 22.9596C23.9832 22.569 23.3501 22.569 22.9596 22.9596C22.569 23.3501 22.569 23.9832 22.9596 24.3738L24.3738 22.9596ZM53.293 24.3597C52.9024 24.7502 52.9023 25.3833 53.2928 25.7739C53.6833 26.1645 54.3164 26.1646 54.707 25.7741L53.293 24.3597ZM56.1076 24.3739C56.4982 23.9834 56.4982 23.3502 56.1078 22.9596C55.7173 22.5691 55.0841 22.569 54.6936 22.9595L56.1076 24.3739ZM61 41C61.5523 41 62 40.5523 62 40C62 39.4477 61.5523 39 61 39V41ZM58.6667 39C58.1144 39 57.6667 39.4477 57.6667 40C57.6667 40.5523 58.1144 41 58.6667 41V39ZM36.3333 56.3333V50.87H34.3333V56.3333H36.3333ZM43.6667 50.87V56.3333H45.6667V50.87H43.6667ZM40 62C43.1296 62 45.6667 59.4629 45.6667 56.3333H43.6667C43.6667 58.3583 42.025 60 40 60V62ZM34.3333 56.3333C34.3333 59.4629 36.8704 62 40 62V60C37.975 60 36.3333 58.3583 36.3333 56.3333H34.3333ZM50.6667 40C50.6667 45.891 45.891 50.6667 40 50.6667V52.6667C46.9956 52.6667 52.6667 46.9956 52.6667 40H50.6667ZM40 50.6667C34.109 50.6667 29.3333 45.891 29.3333 40H27.3333C27.3333 46.9956 33.0044 52.6667 40 52.6667V50.6667ZM29.3333 40C29.3333 34.109 34.109 29.3333 40 29.3333V27.3333C33.0044 27.3333 27.3333 33.0044 27.3333 40H29.3333ZM40 29.3333C45.891 29.3333 50.6667 34.109 50.6667 40H52.6667C52.6667 33.0044 46.9956 27.3333 40 27.3333V29.3333ZM39 19V21.3333H41V19H39ZM21.3333 39H19V41H21.3333V39ZM25.774 24.3598L24.3738 22.9596L22.9596 24.3738L24.3598 25.774L25.774 24.3598ZM54.707 25.7741L56.1076 24.3739L54.6936 22.9595L53.293 24.3597L54.707 25.7741ZM61 39H58.6667V41H61V39Z" fill="#DD8500"/>
</svg>
