<svg width="80" height="80" viewBox="0 0 80 80" fill="none" xmlns="http://www.w3.org/2000/svg">
<rect width="80" height="80" rx="40" fill="white"/>
<path d="M33.0002 37.6667V26C33.0002 22.134 36.1342 19 40.0002 19C43.8662 19 47.0002 22.134 47.0002 26V37.5903M36.2668 61H43.7335C48.9607 61 51.5742 61 53.5707 59.9827C55.3269 59.0879 56.7547 57.6601 57.6496 55.9039C58.6668 53.9074 58.6668 51.2938 58.6668 46.0667V40.4667C58.6668 37.8531 58.6668 36.5463 58.1582 35.548C57.7108 34.67 56.9969 33.956 56.1188 33.5086C55.1205 33 53.8137 33 51.2002 33H28.8002C26.1866 33 24.8798 33 23.8815 33.5086C23.0035 33.956 22.2895 34.67 21.8421 35.548C21.3335 36.5463 21.3335 37.8531 21.3335 40.4667V46.0667C21.3335 51.2938 21.3335 53.9074 22.3508 55.9039C23.2456 57.6601 24.6734 59.0879 26.4296 59.9827C28.4261 61 31.0397 61 36.2668 61Z" stroke="#A600FF" stroke-width="2" stroke-linecap="round" stroke-linejoin="round"/>
</svg>
