<svg width="80" height="80" viewBox="0 0 80 80" fill="none" xmlns="http://www.w3.org/2000/svg">
<rect width="80" height="80" rx="40" fill="white"/>
<path d="M33.9806 21.5296C34.0889 20.9881 33.7377 20.4612 33.1961 20.3529C32.6546 20.2446 32.1277 20.5958 32.0194 21.1374L33.9806 21.5296ZM29.6861 32.804C29.5778 33.3456 29.929 33.8724 30.4705 33.9807C31.0121 34.0891 31.5389 33.7378 31.6472 33.1963L29.6861 32.804ZM50.3139 21.5296C50.4222 20.9881 50.071 20.4612 49.5294 20.3529C48.9879 20.2446 48.4611 20.5958 48.3528 21.1374L50.3139 21.5296ZM46.0194 32.804C45.9111 33.3456 46.2623 33.8724 46.8039 33.9807C47.3454 34.0891 47.8723 33.7378 47.9806 33.1963L46.0194 32.804ZM22.8221 57.9039L22.3681 58.7949L22.3681 58.7949L22.8221 57.9039ZM19.763 54.8448L18.8719 55.2988L18.8719 55.2988L19.763 54.8448ZM60.237 54.8448L61.1281 55.2988L61.1281 55.2988L60.237 54.8448ZM57.1779 57.9039L57.6319 58.7949L57.6319 58.7949L57.1779 57.9039ZM57.1779 22.0965L57.6319 21.2054L57.6319 21.2054L57.1779 22.0965ZM60.237 25.1556L61.1281 24.7016L61.1281 24.7016L60.237 25.1556ZM22.8221 22.0965L22.3681 21.2054L22.3681 21.2054L22.8221 22.0965ZM19.763 25.1556L18.8719 24.7016L18.8719 24.7016L19.763 25.1556ZM61 34.0002C61.5523 34.0002 62 33.5524 62 33.0002C62 32.4479 61.5523 32.0002 61 32.0002V34.0002ZM19 32.0002C18.4477 32.0002 18 32.4479 18 33.0002C18 33.5524 18.4477 34.0002 19 34.0002V32.0002ZM47 45.8335L47.5145 46.691C47.8157 46.5103 48 46.1848 48 45.8335C48 45.4822 47.8157 45.1567 47.5145 44.976L47 45.8335ZM35.3333 52.8335H34.3333C34.3333 53.1938 34.5271 53.5262 34.8406 53.7037C35.1541 53.8812 35.5389 53.8763 35.8478 53.691L35.3333 52.8335ZM35.3333 38.8335L35.8478 37.976C35.5389 37.7906 35.1541 37.7858 34.8406 37.9633C34.5271 38.1408 34.3333 38.4732 34.3333 38.8335H35.3333ZM32.0194 21.1374L29.6861 32.804L31.6472 33.1963L33.9806 21.5296L32.0194 21.1374ZM48.3528 21.1374L46.0194 32.804L47.9806 33.1963L50.3139 21.5296L48.3528 21.1374ZM30.2 22.3335H49.8V20.3335H30.2V22.3335ZM60 32.5335V47.4668H62V32.5335H60ZM49.8 57.6668H30.2V59.6668H49.8V57.6668ZM20 47.4668V32.5335H18V47.4668H20ZM30.2 57.6668C28.2233 57.6668 26.8009 57.6661 25.6838 57.5748C24.5784 57.4845 23.8603 57.3105 23.2761 57.0129L22.3681 58.7949C23.2812 59.2602 24.2919 59.4677 25.521 59.5681C26.7384 59.6676 28.2563 59.6668 30.2 59.6668V57.6668ZM18 47.4668C18 49.4105 17.9992 50.9284 18.0987 52.1458C18.1991 53.375 18.4067 54.3856 18.8719 55.2988L20.654 54.3908C20.3563 53.8065 20.1824 53.0884 20.092 51.983C20.0008 50.8659 20 49.4435 20 47.4668H18ZM23.2761 57.0129C22.1471 56.4376 21.2292 55.5197 20.654 54.3908L18.8719 55.2988C19.6389 56.804 20.8628 58.0279 22.3681 58.7949L23.2761 57.0129ZM60 47.4668C60 49.4435 59.9992 50.8659 59.908 51.983C59.8176 53.0884 59.6437 53.8065 59.346 54.3908L61.1281 55.2988C61.5933 54.3856 61.8009 53.375 61.9013 52.1458C62.0008 50.9284 62 49.4105 62 47.4668H60ZM49.8 59.6668C51.7437 59.6668 53.2616 59.6676 54.479 59.5681C55.7081 59.4677 56.7188 59.2602 57.6319 58.7949L56.7239 57.0129C56.1397 57.3105 55.4216 57.4845 54.3162 57.5748C53.1991 57.6661 51.7767 57.6668 49.8 57.6668V59.6668ZM59.346 54.3908C58.7708 55.5197 57.8529 56.4376 56.7239 57.0129L57.6319 58.7949C59.1372 58.0279 60.3611 56.804 61.1281 55.2988L59.346 54.3908ZM49.8 22.3335C51.7767 22.3335 53.1991 22.3343 54.3162 22.4255C55.4216 22.5159 56.1397 22.6898 56.7239 22.9875L57.6319 21.2054C56.7188 20.7402 55.7081 20.5326 54.479 20.4322C53.2616 20.3327 51.7437 20.3335 49.8 20.3335V22.3335ZM62 32.5335C62 30.5898 62.0008 29.0719 61.9013 27.8545C61.8009 26.6254 61.5933 25.6147 61.1281 24.7016L59.346 25.6096C59.6437 26.1938 59.8176 26.9119 59.908 28.0173C59.9992 29.1344 60 30.5568 60 32.5335H62ZM56.7239 22.9875C57.8529 23.5627 58.7708 24.4806 59.346 25.6096L61.1281 24.7016C60.3611 23.1963 59.1372 21.9724 57.6319 21.2054L56.7239 22.9875ZM30.2 20.3335C28.2563 20.3335 26.7384 20.3327 25.521 20.4322C24.2919 20.5326 23.2812 20.7402 22.3681 21.2054L23.2761 22.9875C23.8603 22.6898 24.5784 22.5159 25.6838 22.4255C26.8009 22.3343 28.2233 22.3335 30.2 22.3335V20.3335ZM20 32.5335C20 30.5568 20.0008 29.1344 20.092 28.0173C20.1824 26.9119 20.3563 26.1938 20.654 25.6096L18.8719 24.7016C18.4067 25.6147 18.1991 26.6254 18.0987 27.8545C17.9992 29.0719 18 30.5898 18 32.5335H20ZM22.3681 21.2054C20.8628 21.9724 19.6389 23.1963 18.8719 24.7016L20.654 25.6096C21.2292 24.4806 22.1471 23.5627 23.2761 22.9875L22.3681 21.2054ZM61 32.0002H19V34.0002H61V32.0002ZM46.4855 44.976L34.8188 51.976L35.8478 53.691L47.5145 46.691L46.4855 44.976ZM36.3333 52.8335V38.8335H34.3333V52.8335H36.3333ZM34.8188 39.691L46.4855 46.691L47.5145 44.976L35.8478 37.976L34.8188 39.691Z" fill="#DD8500"/>
</svg>
