<svg width="80" height="80" viewBox="0 0 80 80" fill="none" xmlns="http://www.w3.org/2000/svg">
<rect width="80" height="80" rx="40" fill="white"/>
<path d="M37.6667 56.3332L37.6567 37.6665M37.6567 37.6665C36.9889 36.2421 36.3832 34.8902 35.7796 33.821C33.8457 30.3953 31.9117 25.9165 28.3335 24.2683M37.6567 37.6665C39.3096 41.192 41.3431 45.1614 44.6669 46.3863M54 56.3332L54.0002 45.5684M54.0002 45.5684C53.4407 45.8476 52.944 46.0569 52.5591 46.2054C50.5002 46.9998 47.6822 47.4976 44.6669 46.3863M54.0002 45.5684C56.7442 44.199 61.0002 41.1476 61.0002 35.3332M44.6667 56.3332L44.6669 46.3863M54.0002 37.6665L54.2238 26.8741M44.6669 35.5659V26.9374M44.6669 26.9374C47.8047 26.0887 50.8768 25.993 52.5591 26.3903C60.0088 28.1496 61.0002 30.6665 61.0002 35.3332M44.6669 26.9374C43.0608 27.3718 41.4375 28.0035 39.9745 28.8673M61 56.3332L61.0002 35.3332M19 56.3332L19.0002 28.9111C19.0002 28.0414 19.0002 27.6066 19.1794 27.0684C19.3044 26.6929 19.6692 26.0781 19.9389 25.7885C20.3256 25.3734 20.5747 25.2374 21.0731 24.9655C22.811 24.017 25.1621 23.2557 27.3899 23.9134C27.7169 24.0099 28.0311 24.129 28.3335 24.2683M28.3333 56.3332L28.3335 24.2683" stroke="#A600FF" stroke-width="2" stroke-linecap="round" stroke-linejoin="round"/>
</svg>
