<svg width="80" height="80" viewBox="0 0 80 80" fill="none" xmlns="http://www.w3.org/2000/svg">
<rect width="80" height="80" rx="40" fill="white"/>
<path d="M57.6668 29.5002C57.6668 30.0524 58.1145 30.5002 58.6668 30.5002C59.2191 30.5002 59.6668 30.0524 59.6668 29.5002H57.6668ZM30.6668 59.6668C31.2191 59.6668 31.6668 59.2191 31.6668 58.6668C31.6668 58.1145 31.2191 57.6668 30.6668 57.6668V59.6668ZM21.3934 52.5805L20.4019 52.711L21.3934 52.5805ZM27.4198 58.6069L27.2893 59.5984H27.2893L27.4198 58.6069ZM25.1556 22.0965L25.6096 22.9875L25.1556 22.0965ZM22.0965 25.1556L22.9875 25.6096H22.9875L22.0965 25.1556ZM28.3335 35.5002C27.7812 35.5002 27.3335 35.9479 27.3335 36.5002C27.3335 37.0524 27.7812 37.5002 28.3335 37.5002V35.5002ZM40.0002 37.5002C40.5524 37.5002 41.0002 37.0524 41.0002 36.5002C41.0002 35.9479 40.5524 35.5002 40.0002 35.5002V37.5002ZM28.3335 27.3335C27.7812 27.3335 27.3335 27.7812 27.3335 28.3335C27.3335 28.8858 27.7812 29.3335 28.3335 29.3335V27.3335ZM44.6668 29.3335C45.2191 29.3335 45.6668 28.8858 45.6668 28.3335C45.6668 27.7812 45.2191 27.3335 44.6668 27.3335V29.3335ZM38.1229 60.754L37.1494 60.5252C37.0716 60.856 37.1672 61.2038 37.4032 61.4484C37.6392 61.693 37.9833 61.8009 38.3167 61.735L38.1229 60.754ZM40.7139 52.7662L41.5284 53.3465L40.7139 52.7662ZM38.865 57.5974L39.8384 57.8262L38.865 57.5974ZM39.7088 54.5711L40.6309 54.9579L39.7088 54.5711ZM46.3853 58.3205L45.8138 57.4999L46.3853 58.3205ZM41.1907 60.1477L41.3845 61.1288L41.1907 60.1477ZM44.4456 59.3557L44.8093 60.2873L44.4456 59.3557ZM32.5335 22.3335H51.6668V20.3335H32.5335V22.3335ZM22.3335 50.5002V32.5335H20.3335V50.5002H22.3335ZM20.3335 50.5002C20.3335 51.552 20.3313 52.1748 20.4019 52.711L22.3848 52.45C22.3357 52.0765 22.3335 51.6156 22.3335 50.5002H20.3335ZM30.6668 57.6668C30.1238 57.6668 29.4319 57.6668 28.8196 57.6594C28.1759 57.6516 27.705 57.6359 27.5503 57.6155L27.2893 59.5984C27.5895 59.6379 28.2002 59.6521 28.7954 59.6593C29.422 59.6668 30.1262 59.6668 30.6668 59.6668V57.6668ZM20.4019 52.711C20.8746 56.3009 23.6994 59.1258 27.2893 59.5984L27.5503 57.6155C24.8579 57.261 22.7393 55.1424 22.3848 52.45L20.4019 52.711ZM51.6668 22.3335C53.214 22.3335 54.7029 23.1981 55.8406 24.5978C56.9777 25.9968 57.6668 27.82 57.6668 29.5002H59.6668C59.6668 27.3143 58.7889 25.0542 57.3926 23.3363C55.9968 21.6192 53.9857 20.3335 51.6668 20.3335V22.3335ZM32.5335 20.3335C30.5898 20.3335 29.0719 20.3327 27.8545 20.4322C26.6254 20.5326 25.6147 20.7402 24.7016 21.2054L25.6096 22.9875C26.1938 22.6898 26.9119 22.5159 28.0173 22.4255C29.1344 22.3343 30.5568 22.3335 32.5335 22.3335V20.3335ZM22.3335 32.5335C22.3335 30.5568 22.3343 29.1344 22.4255 28.0173C22.5159 26.9119 22.6898 26.1938 22.9875 25.6096L21.2054 24.7016C20.7402 25.6147 20.5326 26.6254 20.4322 27.8545C20.3327 29.0719 20.3335 30.5898 20.3335 32.5335H22.3335ZM24.7016 21.2054C23.1963 21.9724 21.9724 23.1963 21.2054 24.7016L22.9875 25.6096C23.5627 24.4806 24.4806 23.5627 25.6096 22.9875L24.7016 21.2054ZM34.3335 48.1668C34.3335 49.5475 33.2142 50.6668 31.8335 50.6668V52.6668C34.3188 52.6668 36.3335 50.6521 36.3335 48.1668H34.3335ZM31.8335 50.6668C30.4528 50.6668 29.3335 49.5475 29.3335 48.1668H27.3335C27.3335 50.6521 29.3482 52.6668 31.8335 52.6668V50.6668ZM29.3335 48.1668C29.3335 46.7861 30.4528 45.6668 31.8335 45.6668V43.6668C29.3482 43.6668 27.3335 45.6815 27.3335 48.1668H29.3335ZM31.8335 45.6668C33.2142 45.6668 34.3335 46.7861 34.3335 48.1668H36.3335C36.3335 45.6815 34.3188 43.6668 31.8335 43.6668V45.6668ZM28.3335 37.5002H40.0002V35.5002H28.3335V37.5002ZM28.3335 29.3335H44.6668V27.3335H28.3335V29.3335ZM60.1609 43.3371L48.1479 55.3501L49.5621 56.7643L61.5751 44.7513L60.1609 43.3371ZM43.5496 51.1625L55.768 38.9442L54.3538 37.53L42.1354 49.7483L43.5496 51.1625ZM40.9968 59.1667L37.929 59.773L38.3167 61.735L41.3845 61.1288L40.9968 59.1667ZM39.0963 60.9829L39.8384 57.8262L37.8915 57.3685L37.1494 60.5252L39.0963 60.9829ZM42.1354 49.7483C41.0402 50.8435 40.4105 51.4687 39.8995 52.1859L41.5284 53.3465C41.9204 52.7962 42.4087 52.3034 43.5496 51.1625L42.1354 49.7483ZM39.8384 57.8262C40.2077 56.2556 40.3695 55.5809 40.6309 54.9579L38.7866 54.1842C38.4459 54.9962 38.246 55.8608 37.8915 57.3685L39.8384 57.8262ZM39.8995 52.1859C39.4558 52.8088 39.0825 53.479 38.7866 54.1842L40.6309 54.9579C40.8695 54.3892 41.1705 53.8488 41.5284 53.3465L39.8995 52.1859ZM48.1479 55.3501C46.9303 56.5677 46.4041 57.0888 45.8138 57.4999L46.9568 59.1411C47.7263 58.6052 48.3934 57.9331 49.5621 56.7643L48.1479 55.3501ZM41.3845 61.1288C43.006 60.8083 43.9357 60.6283 44.8093 60.2873L44.0819 58.4242C43.4118 58.6858 42.6861 58.8329 40.9968 59.1667L41.3845 61.1288ZM45.8138 57.4999C45.2749 57.8751 44.6936 58.1854 44.0819 58.4242L44.8093 60.2873C45.5678 59.9911 46.2886 59.6064 46.9568 59.1411L45.8138 57.4999ZM60.1609 38.9442C61.374 40.1572 61.374 42.124 60.1609 43.3371L61.5751 44.7513C63.5692 42.7572 63.5692 39.5241 61.5751 37.53L60.1609 38.9442ZM61.5751 37.53C59.581 35.5358 56.3479 35.5358 54.3538 37.53L55.768 38.9442C56.981 37.7311 58.9478 37.7311 60.1609 38.9442L61.5751 37.53Z" fill="#A600FF"/>
</svg>
