<svg width="80" height="80" viewBox="0 0 80 80" fill="none" xmlns="http://www.w3.org/2000/svg">
<rect width="80" height="80" rx="40" fill="white"/>
<path d="M33 37.6667V26C33 22.134 36.134 19 40 19C43.866 19 47 22.134 47 26V37.5903M36.2667 61H43.7334C48.9605 61 51.5741 61 53.5706 59.9827C55.3268 59.0879 56.7546 57.6601 57.6494 55.9039C58.6667 53.9074 58.6667 51.2938 58.6667 46.0667V40.4667C58.6667 37.8531 58.6667 36.5463 58.1581 35.548C57.7107 34.67 56.9968 33.956 56.1187 33.5086C55.1204 33 53.8136 33 51.2 33H28.8C26.1865 33 24.8797 33 23.8814 33.5086C23.0033 33.956 22.2894 34.67 21.842 35.548C21.3334 36.5463 21.3334 37.8531 21.3334 40.4667V46.0667C21.3334 51.2938 21.3334 53.9074 22.3506 55.9039C23.2455 57.6601 24.6733 59.0879 26.4295 59.9827C28.426 61 31.0395 61 36.2667 61Z" stroke="#DD8500" stroke-width="2" stroke-linecap="round" stroke-linejoin="round"/>
</svg>
