<svg width="80" height="80" viewBox="0 0 80 80" fill="none" xmlns="http://www.w3.org/2000/svg">
<rect width="80" height="80" rx="40" fill="white"/>
<path d="M49.3332 37.6667H44.6665M49.3332 49.3333H44.6665M30.6665 37.6667L32.9998 40L37.6665 35.3333M30.6665 49.3333L32.9998 51.6667L37.6665 47M49.3332 23.6667C53.1992 23.6667 56.3332 26.8007 56.3332 30.6667V49.8C56.3332 53.7204 56.3332 55.6806 55.5702 57.1779C54.8991 58.4951 53.8282 59.5659 52.5111 60.237C51.0137 61 49.0535 61 45.1332 61H34.8665C30.9461 61 28.986 61 27.4886 60.237C26.1714 59.5659 25.1006 58.4951 24.4295 57.1779C23.6665 55.6806 23.6665 53.7204 23.6665 49.8V30.6667C23.6665 26.8007 26.8005 23.6667 30.6665 23.6667M30.6665 28.3333H49.3332V22.9832C49.3332 21.9268 48.9135 20.9137 48.1665 20.1667C47.4195 19.4197 46.4063 19 45.3499 19H34.6498C33.5933 19 32.5802 19.4197 31.8332 20.1667C31.0862 20.9137 30.6665 21.9268 30.6665 22.9832V28.3333Z" stroke="#A600FF" stroke-width="2" stroke-linecap="round" stroke-linejoin="round"/>
</svg>
