<svg width="80" height="80" viewBox="0 0 80 80" fill="none" xmlns="http://www.w3.org/2000/svg">
<rect width="80" height="80" rx="40" fill="white"/>
<path d="M39.9997 61L35.333 58.6667M39.9997 61L44.6663 58.6667M39.9997 61V55.1667M25.9997 54L21.333 51.6667V45.8333M21.333 34.1667V28.3333M21.333 28.3333L25.9997 26M21.333 28.3333L25.9997 30.6667M35.333 21.3333L39.9997 19L44.6663 21.3333M53.9997 26L58.6663 28.3333M58.6663 28.3333L53.9997 30.6667M58.6663 28.3333V34.1667M39.9997 37.6667L35.333 35.3333M39.9997 37.6667L44.6663 35.3333M39.9997 37.6667V43.5M53.9997 54L58.6663 51.6667V45.8333" stroke="#A600FF" stroke-width="2" stroke-linecap="round" stroke-linejoin="round"/>
</svg>
