<svg width="80" height="80" viewBox="0 0 80 80" fill="none" xmlns="http://www.w3.org/2000/svg">
<rect width="80" height="80" rx="40" fill="white"/>
<path d="M57.6666 29.5002C57.6666 30.0524 58.1144 30.5002 58.6666 30.5002C59.2189 30.5002 59.6666 30.0524 59.6666 29.5002H57.6666ZM30.6666 59.6668C31.2189 59.6668 31.6666 59.2191 31.6666 58.6668C31.6666 58.1145 31.2189 57.6668 30.6666 57.6668V59.6668ZM21.3932 52.5805L20.4018 52.711L20.4018 52.711L21.3932 52.5805ZM27.4196 58.6069L27.2891 59.5984L27.2891 59.5984L27.4196 58.6069ZM25.1554 22.0965L25.6094 22.9875L25.6094 22.9875L25.1554 22.0965ZM22.0963 25.1556L22.9873 25.6096L22.9873 25.6096L22.0963 25.1556ZM28.3333 35.5002C27.781 35.5002 27.3333 35.9479 27.3333 36.5002C27.3333 37.0524 27.781 37.5002 28.3333 37.5002V35.5002ZM40 37.5002C40.5523 37.5002 41 37.0524 41 36.5002C41 35.9479 40.5523 35.5002 40 35.5002V37.5002ZM28.3333 27.3335C27.781 27.3335 27.3333 27.7812 27.3333 28.3335C27.3333 28.8858 27.781 29.3335 28.3333 29.3335V27.3335ZM44.6666 29.3335C45.2189 29.3335 45.6666 28.8858 45.6666 28.3335C45.6666 27.7812 45.2189 27.3335 44.6666 27.3335V29.3335ZM38.1227 60.754L37.1492 60.5252C37.0714 60.856 37.167 61.2038 37.403 61.4484C37.639 61.693 37.9831 61.8009 38.3165 61.735L38.1227 60.754ZM40.7138 52.7662L41.5282 53.3465L41.5282 53.3465L40.7138 52.7662ZM38.8648 57.5974L39.8382 57.8262L39.8382 57.8262L38.8648 57.5974ZM39.7086 54.5711L40.6307 54.9579L40.6307 54.9579L39.7086 54.5711ZM46.3851 58.3205L45.8136 57.4999L46.3851 58.3205ZM41.1905 60.1477L41.3844 61.1288L41.1905 60.1477ZM44.4454 59.3557L44.8091 60.2872L44.4454 59.3557ZM32.5333 22.3335H51.6666V20.3335H32.5333V22.3335ZM22.3333 50.5002V32.5335H20.3333V50.5002H22.3333ZM20.3333 50.5002C20.3333 51.552 20.3312 52.1748 20.4018 52.711L22.3846 52.45C22.3355 52.0765 22.3333 51.6156 22.3333 50.5002H20.3333ZM30.6666 57.6668C30.1236 57.6668 29.4318 57.6668 28.8194 57.6594C28.1758 57.6516 27.7048 57.6359 27.5502 57.6155L27.2891 59.5984C27.5894 59.6379 28.2001 59.6521 28.7953 59.6593C29.4218 59.6668 30.126 59.6668 30.6666 59.6668V57.6668ZM20.4018 52.711C20.8744 56.3009 23.6992 59.1258 27.2891 59.5984L27.5502 57.6155C24.8578 57.261 22.7391 55.1424 22.3846 52.45L20.4018 52.711ZM51.6666 22.3335C53.2138 22.3335 54.7027 23.1981 55.8404 24.5978C56.9775 25.9968 57.6666 27.82 57.6666 29.5002H59.6666C59.6666 27.3143 58.7888 25.0542 57.3924 23.3363C55.9966 21.6192 53.9855 20.3335 51.6666 20.3335V22.3335ZM32.5333 20.3335C30.5896 20.3335 29.0717 20.3327 27.8543 20.4322C26.6252 20.5326 25.6145 20.7402 24.7014 21.2054L25.6094 22.9875C26.1936 22.6898 26.9117 22.5159 28.0172 22.4255C29.1343 22.3343 30.5566 22.3335 32.5333 22.3335V20.3335ZM22.3333 32.5335C22.3333 30.5568 22.3341 29.1344 22.4254 28.0173C22.5157 26.9119 22.6896 26.1938 22.9873 25.6096L21.2053 24.7016C20.74 25.6147 20.5324 26.6254 20.432 27.8545C20.3325 29.0719 20.3333 30.5898 20.3333 32.5335H22.3333ZM24.7014 21.2054C23.1961 21.9724 21.9722 23.1963 21.2053 24.7016L22.9873 25.6096C23.5625 24.4806 24.4804 23.5627 25.6094 22.9875L24.7014 21.2054ZM34.3333 48.1668C34.3333 49.5475 33.214 50.6668 31.8333 50.6668V52.6668C34.3186 52.6668 36.3333 50.6521 36.3333 48.1668H34.3333ZM31.8333 50.6668C30.4526 50.6668 29.3333 49.5475 29.3333 48.1668H27.3333C27.3333 50.6521 29.348 52.6668 31.8333 52.6668V50.6668ZM29.3333 48.1668C29.3333 46.7861 30.4526 45.6668 31.8333 45.6668V43.6668C29.348 43.6668 27.3333 45.6815 27.3333 48.1668H29.3333ZM31.8333 45.6668C33.214 45.6668 34.3333 46.7861 34.3333 48.1668H36.3333C36.3333 45.6815 34.3186 43.6668 31.8333 43.6668V45.6668ZM28.3333 37.5002H40V35.5002H28.3333V37.5002ZM28.3333 29.3335H44.6666V27.3335H28.3333V29.3335ZM60.1607 43.3371L48.1477 55.3501L49.5619 56.7643L61.5749 44.7513L60.1607 43.3371ZM43.5494 51.1625L55.7678 38.9442L54.3536 37.53L42.1352 49.7483L43.5494 51.1625ZM40.9966 59.1667L37.9288 59.773L38.3165 61.735L41.3844 61.1288L40.9966 59.1667ZM39.0961 60.9829L39.8382 57.8262L37.8913 57.3685L37.1492 60.5252L39.0961 60.9829ZM42.1352 49.7483C41.04 50.8435 40.4103 51.4687 39.8993 52.1859L41.5282 53.3465C41.9202 52.7962 42.4086 52.3034 43.5494 51.1625L42.1352 49.7483ZM39.8382 57.8262C40.2075 56.2556 40.3693 55.5809 40.6307 54.9579L38.7865 54.1842C38.4458 54.9962 38.2458 55.8608 37.8913 57.3685L39.8382 57.8262ZM39.8993 52.1859C39.4556 52.8088 39.0823 53.479 38.7865 54.1842L40.6307 54.9579C40.8693 54.3892 41.1703 53.8488 41.5282 53.3465L39.8993 52.1859ZM48.1477 55.3501C46.9301 56.5677 46.4039 57.0888 45.8136 57.4999L46.9566 59.1411C47.7261 58.6052 48.3932 57.9331 49.5619 56.7643L48.1477 55.3501ZM41.3844 61.1288C43.0058 60.8083 43.9355 60.6283 44.8091 60.2872L44.0818 58.4242C43.4116 58.6858 42.6859 58.8329 40.9966 59.1667L41.3844 61.1288ZM45.8136 57.4999C45.2748 57.8751 44.6934 58.1854 44.0818 58.4242L44.8091 60.2872C45.5676 59.9911 46.2884 59.6064 46.9566 59.1411L45.8136 57.4999ZM60.1607 38.9442C61.3738 40.1572 61.3738 42.124 60.1607 43.3371L61.5749 44.7513C63.569 42.7572 63.569 39.5241 61.5749 37.53L60.1607 38.9442ZM61.5749 37.53C59.5808 35.5358 56.3477 35.5358 54.3536 37.53L55.7678 38.9442C56.9809 37.7311 58.9476 37.7311 60.1607 38.9442L61.5749 37.53Z" fill="#DD8500"/>
</svg>
