<svg width="80" height="80" viewBox="0 0 80 80" fill="none" xmlns="http://www.w3.org/2000/svg">
<rect width="80" height="80" rx="40" fill="white"/>
<path d="M36.6665 56.3337C36.6668 56.886 37.1147 57.3335 37.667 57.3332C38.2193 57.3329 38.6668 56.8849 38.6665 56.3326L36.6665 56.3337ZM52.9998 56.3332C52.9998 56.8854 53.4475 57.3332 53.9998 57.3332C54.5521 57.3332 54.9998 56.8855 54.9998 56.3332L52.9998 56.3332ZM54 45.5684L53.5535 44.6736L53.5535 44.6736L54 45.5684ZM43.6665 56.3332C43.6665 56.8854 44.1142 57.3332 44.6665 57.3332C45.2188 57.3332 45.6665 56.8855 45.6665 56.3332L43.6665 56.3332ZM44.6667 46.3863L45.0125 45.448L45.0125 45.448L44.6667 46.3863ZM53.0002 37.6458C52.9888 38.198 53.4271 38.6549 53.9793 38.6663C54.5315 38.6777 54.9884 38.2394 54.9998 37.6872L53.0002 37.6458ZM55.2234 26.8949C55.2348 26.3427 54.7965 25.8858 54.2443 25.8744C53.6922 25.8629 53.2353 26.3013 53.2238 26.8534L55.2234 26.8949ZM43.6667 35.5659C43.6667 36.1182 44.1144 36.5659 44.6667 36.5659C45.219 36.5659 45.6667 36.1182 45.6667 35.5659H43.6667ZM59.9998 56.3332C59.9998 56.8854 60.4475 57.3332 60.9998 57.3332C61.5521 57.3332 61.9998 56.8855 61.9998 56.3332L59.9998 56.3332ZM17.9998 56.3332C17.9998 56.8855 18.4475 57.3332 18.9998 57.3332C19.5521 57.3332 19.9998 56.8855 19.9998 56.3332L17.9998 56.3332ZM19 28.9111L18 28.9111L19 28.9111ZM27.3332 56.3332C27.3331 56.8855 27.7809 57.3332 28.3331 57.3332C28.8854 57.3332 29.3331 56.8855 29.3332 56.3332L27.3332 56.3332ZM21.0729 24.9655L20.5938 24.0877L20.5938 24.0877L21.0729 24.9655ZM27.3897 23.9134L27.1066 24.8725L27.1066 24.8725L27.3897 23.9134ZM35.7795 33.821L34.9086 34.3126L34.9086 34.3126L35.7795 33.821ZM52.5589 46.2054L52.1989 45.2725L52.1989 45.2725L52.5589 46.2054ZM52.5589 26.3903L52.7887 25.417L52.7887 25.417L52.5589 26.3903ZM39.4659 28.0062C38.9903 28.287 38.8324 28.9001 39.1132 29.3757C39.394 29.8513 40.0072 30.0092 40.4828 29.7284L39.4659 28.0062ZM19.1792 27.0684L20.128 27.3843L20.128 27.3843L19.1792 27.0684ZM19.9388 25.7885L19.207 25.107L19.207 25.107L19.9388 25.7885ZM38.6665 56.3326L38.6565 37.666L36.6565 37.667L36.6665 56.3337L38.6665 56.3326ZM54.9998 56.3332L55 45.5684L53 45.5684L52.9998 56.3332L54.9998 56.3332ZM45.6665 56.3332L45.6667 46.3864L43.6667 46.3863L43.6665 56.3332L45.6665 56.3332ZM54.9998 37.6872L55.2234 26.8949L53.2238 26.8534L53.0002 37.6458L54.9998 37.6872ZM45.6667 35.5659V26.9374H43.6667V35.5659H45.6667ZM61.9998 56.3332L62 35.3332L60 35.3332L59.9998 56.3332L61.9998 56.3332ZM19.9998 56.3332L20 28.9111L18 28.9111L17.9998 56.3332L19.9998 56.3332ZM29.3332 56.3332L29.3333 24.2683L27.3333 24.2683L27.3332 56.3332L29.3332 56.3332ZM21.5519 25.8433C23.1984 24.9447 25.2551 24.3259 27.1066 24.8725L27.6729 22.9543C25.0687 22.1855 22.4232 23.0893 20.5938 24.0877L21.5519 25.8433ZM27.1066 24.8725C27.386 24.955 27.655 25.0569 27.915 25.1766L28.7517 23.3601C28.4067 23.2012 28.0474 23.0649 27.6729 22.9543L27.1066 24.8725ZM27.915 25.1766C29.4575 25.8871 30.7091 27.2397 31.8416 28.9339C32.9876 30.6481 33.9002 32.5264 34.9086 34.3126L36.6503 33.3294C35.7247 31.6899 34.7034 29.616 33.5043 27.8223C32.2919 26.0086 30.7874 24.2977 28.7517 23.3601L27.915 25.1766ZM34.9086 34.3126C35.4879 35.3387 36.0697 36.6376 36.7511 38.091L38.562 37.242C37.9077 35.8466 37.2782 34.4416 36.6503 33.3294L34.9086 34.3126ZM36.7511 38.091C37.5777 39.8541 38.5323 41.802 39.7207 43.4695C40.9073 45.1345 42.3919 46.6137 44.3209 47.3247L45.0125 45.448C43.6177 44.934 42.4237 43.8161 41.3494 42.3087C40.2769 40.8039 39.3883 39.0044 38.562 37.242L36.7511 38.091ZM44.3209 47.3247C47.6333 48.5454 50.7127 47.9896 52.9189 47.1384L52.1989 45.2725C50.2873 46.01 47.7308 46.4498 45.0125 45.448L44.3209 47.3247ZM52.9189 47.1384C53.3283 46.9804 53.8544 46.7586 54.4465 46.4632L53.5535 44.6736C53.0265 44.9366 52.5593 45.1334 52.1989 45.2725L52.9189 47.1384ZM54.4465 46.4632C57.2965 45.0409 62 41.7311 62 35.3332H60C60 40.564 56.1915 43.3571 53.5535 44.6736L54.4465 46.4632ZM62 35.3332C62 32.9669 61.7616 30.8568 60.3452 29.136C58.9491 27.4398 56.5637 26.3085 52.7887 25.417L52.3291 27.3635C56.0039 28.2313 57.8389 29.2381 58.801 30.407C59.7427 31.5511 60 33.0327 60 35.3332H62ZM52.7887 25.417C50.8927 24.9693 47.6428 25.0965 44.4056 25.9721L44.9278 27.9027C47.9662 27.0809 50.8606 27.0167 52.3291 27.3635L52.7887 25.417ZM44.4056 25.9721C42.7311 26.425 41.0211 27.0879 39.4659 28.0062L40.4828 29.7284C41.8535 28.919 43.3901 28.3186 44.9278 27.9027L44.4056 25.9721ZM20 28.9111C20 28.0098 20.0088 27.7421 20.128 27.3843L18.2304 26.7525C17.9911 27.4711 18 28.0731 18 28.9111L20 28.9111ZM20.5938 24.0877C20.076 24.3703 19.7082 24.5688 19.207 25.107L20.6705 26.4701C20.9426 26.178 21.0731 26.1046 21.5519 25.8433L20.5938 24.0877ZM20.128 27.3843C20.1586 27.2922 20.2417 27.1139 20.3647 26.9066C20.4877 26.6994 20.6045 26.541 20.6705 26.4701L19.207 25.107C19.0034 25.3256 18.8029 25.6195 18.6448 25.8859C18.4866 26.1523 18.3248 26.4691 18.2304 26.7525L20.128 27.3843Z" fill="#DD8500"/>
</svg>
