<svg width="56" height="57" viewBox="0 0 56 57" fill="none" xmlns="http://www.w3.org/2000/svg">
<path d="M20.9997 26.6589V14.9922C20.9997 11.1262 24.1337 7.99219 27.9997 7.99219C31.8657 7.99219 34.9997 11.1262 34.9997 14.9922V26.5825M24.2663 49.9922H31.733C36.9602 49.9922 39.5737 49.9922 41.5703 48.9749C43.3264 48.0801 44.7542 46.6523 45.6491 44.8961C46.6663 42.8996 46.6663 40.286 46.6663 35.0589V29.4589C46.6663 26.8453 46.6663 25.5385 46.1577 24.5402C45.7103 23.6621 44.9964 22.9482 44.1183 22.5008C43.12 21.9922 41.8133 21.9922 39.1997 21.9922H16.7997C14.1861 21.9922 12.8793 21.9922 11.8811 22.5008C11.003 22.9482 10.2891 23.6621 9.84164 24.5402C9.33301 25.5385 9.33301 26.8453 9.33301 29.4589V35.0589C9.33301 40.286 9.33301 42.8996 10.3503 44.8961C11.2451 46.6523 12.6729 48.0801 14.4291 48.9749C16.4256 49.9922 19.0392 49.9922 24.2663 49.9922Z" stroke="white" stroke-width="1.58359" stroke-linecap="round" stroke-linejoin="round"/>
</svg>
