<svg width="48" height="48" viewBox="0 0 48 48" fill="none" xmlns="http://www.w3.org/2000/svg">
<path d="M23.9999 23.9999V42M23.9999 23.9999L39.9512 15.529M23.9999 23.9999L8.03183 15.6304M40 31.4121V16.5879C40 15.9621 40 15.6492 39.9102 15.3702C39.8308 15.1233 39.7011 14.8967 39.5295 14.7055C39.3357 14.4894 39.0694 14.3375 38.5369 14.0336L25.3814 6.52547C24.8772 6.23772 24.6251 6.09385 24.3581 6.03744C24.1219 5.98752 23.8782 5.98752 23.6419 6.03744C23.3749 6.09385 23.1228 6.23772 22.6186 6.52547L9.46306 14.0336C8.93057 14.3375 8.66433 14.4894 8.47046 14.7055C8.29895 14.8967 8.16915 15.1233 8.08975 15.3702C8 15.6493 8 15.9621 8 16.5879V31.4121C8 32.0379 8 32.3508 8.08975 32.6298C8.16915 32.8767 8.29895 33.1033 8.47046 33.2945C8.66433 33.5106 8.93057 33.6625 9.46306 33.9664L22.6186 41.4745C23.1228 41.7623 23.3749 41.9061 23.6419 41.9626C23.8782 42.0125 24.1219 42.0125 24.3581 41.9626C24.6251 41.9061 24.8772 41.7623 25.3814 41.4745L38.5369 33.9664C39.0694 33.6625 39.3357 33.5106 39.5295 33.2945C39.7011 33.1033 39.8308 32.8767 39.9102 32.6298C40 32.3508 40 32.0379 40 31.4121Z" stroke="#DD8500" stroke-width="2" stroke-linecap="round" stroke-linejoin="round"/>
</svg>
