<svg width="48" height="48" viewBox="0 0 48 48" fill="none" xmlns="http://www.w3.org/2000/svg">
<path d="M14 42H34M15.6 34H32.4C35.7603 34 37.4405 34 38.7239 33.346C39.8529 32.7708 40.7708 31.8529 41.346 30.7239C42 29.4405 42 27.7603 42 24.4V15.6C42 12.2397 42 10.5595 41.346 9.27606C40.7708 8.14708 39.8529 7.2292 38.7239 6.65396C37.4405 6 35.7603 6 32.4 6H15.6C12.2397 6 10.5595 6 9.27606 6.65396C8.14708 7.2292 7.2292 8.14708 6.65396 9.27606C6 10.5595 6 12.2397 6 15.6V24.4C6 27.7603 6 29.4405 6.65396 30.7239C7.2292 31.8529 8.14708 32.7708 9.27606 33.346C10.5595 34 12.2397 34 15.6 34Z" stroke="#DD8500" stroke-width="2" stroke-linecap="round" stroke-linejoin="round"/>
</svg>
