<svg width="48" height="48" viewBox="0 0 48 48" fill="none" xmlns="http://www.w3.org/2000/svg">
<path d="M6 24H42M24 16V24M13 24V32M35 24V32M20.2 16H27.8C28.9201 16 29.4802 16 29.908 15.782C30.2843 15.5903 30.5903 15.2843 30.782 14.908C31 14.4802 31 13.9201 31 12.8V9.2C31 8.07989 31 7.51984 30.782 7.09202C30.5903 6.71569 30.2843 6.40973 29.908 6.21799C29.4802 6 28.9201 6 27.8 6H20.2C19.0799 6 18.5198 6 18.092 6.21799C17.7157 6.40973 17.4097 6.71569 17.218 7.09202C17 7.51984 17 8.07989 17 9.2V12.8C17 13.9201 17 14.4802 17.218 14.908C17.4097 15.2843 17.7157 15.5903 18.092 15.782C18.5198 16 19.0799 16 20.2 16ZM31.2 42H38.8C39.9201 42 40.4802 42 40.908 41.782C41.2843 41.5903 41.5903 41.2843 41.782 40.908C42 40.4802 42 39.9201 42 38.8V35.2C42 34.0799 42 33.5198 41.782 33.092C41.5903 32.7157 41.2843 32.4097 40.908 32.218C40.4802 32 39.9201 32 38.8 32H31.2C30.0799 32 29.5198 32 29.092 32.218C28.7157 32.4097 28.4097 32.7157 28.218 33.092C28 33.5198 28 34.0799 28 35.2V38.8C28 39.9201 28 40.4802 28.218 40.908C28.4097 41.2843 28.7157 41.5903 29.092 41.782C29.5198 42 30.0799 42 31.2 42ZM9.2 42H16.8C17.9201 42 18.4802 42 18.908 41.782C19.2843 41.5903 19.5903 41.2843 19.782 40.908C20 40.4802 20 39.9201 20 38.8V35.2C20 34.0799 20 33.5198 19.782 33.092C19.5903 32.7157 19.2843 32.4097 18.908 32.218C18.4802 32 17.9201 32 16.8 32H9.2C8.0799 32 7.51984 32 7.09202 32.218C6.71569 32.4097 6.40973 32.7157 6.21799 33.092C6 33.5198 6 34.0799 6 35.2V38.8C6 39.9201 6 40.4802 6.21799 40.908C6.40973 41.2843 6.71569 41.5903 7.09202 41.782C7.51984 42 8.07989 42 9.2 42Z" stroke="#DD8500" stroke-width="2" stroke-linecap="round" stroke-linejoin="round"/>
</svg>
