<svg width="49" height="48" viewBox="0 0 49 48" fill="none" xmlns="http://www.w3.org/2000/svg">
<path d="M17.0396 33.7955C16.3902 33.7955 15.8829 33.6129 15.5379 33.2476C14.6653 32.375 14.8683 30.4675 16.0453 28.0324C18.3586 23.2839 23.8174 17.7845 28.1803 15.7553C30.169 14.8218 31.6909 14.7609 32.4621 15.5321C33.3347 16.4046 33.1317 18.3122 31.9547 20.7473C29.6414 25.4958 24.1826 31.0154 19.8197 33.0447C18.7442 33.552 17.7904 33.7955 17.0396 33.7955ZM28.2006 15.7959L28.2209 15.8364C23.858 17.8454 18.4398 23.3447 16.1264 28.0932C14.9494 30.4878 14.7668 32.3547 15.5988 33.207C16.3294 33.9578 17.831 33.8767 19.7791 32.9635C24.142 30.9545 29.5602 25.4552 31.8736 20.7067C33.0506 18.3122 33.2332 16.4452 32.4012 15.5929C31.6706 14.8421 30.169 14.9233 28.2209 15.8364L28.2006 15.7959Z" fill="white" stroke="#DD8500" stroke-width="2" stroke-miterlimit="10"/>
<circle cx="24" cy="24" r="18" stroke="#DD8500" stroke-width="2"/>
</svg>
