<svg width="48" height="48" viewBox="0 0 48 48" fill="none" xmlns="http://www.w3.org/2000/svg">
<path d="M12 13.9004H12.02M18 13.9004H18.02M24 13.9004H24.02M12.4 40H35.6C37.8402 40 38.9603 40 39.816 39.564C40.5686 39.1805 41.1805 38.5686 41.564 37.816C42 36.9603 42 35.8402 42 33.6V14.4C42 12.1598 42 11.0397 41.564 10.184C41.1805 9.43139 40.5686 8.81947 39.816 8.43597C38.9603 8 37.8402 8 35.6 8H12.4C10.1598 8 9.03968 8 8.18404 8.43597C7.43139 8.81947 6.81947 9.43139 6.43597 10.184C6 11.0397 6 12.1598 6 14.4V33.6C6 35.8402 6 36.9603 6.43597 37.816C6.81947 38.5686 7.43139 39.1805 8.18404 39.564C9.03968 40 10.1598 40 12.4 40Z" stroke="#DD8500" stroke-width="2" stroke-linecap="round" stroke-linejoin="round"/>
</svg>
