<svg width="56" height="56" viewBox="0 0 56 56" fill="none" xmlns="http://www.w3.org/2000/svg">
<path d="M4.66602 28.0003H50.166M18.666 39.667H37.3327M18.666 39.667C18.666 42.2443 16.5767 44.3337 13.9993 44.3337C11.422 44.3337 9.33268 42.2443 9.33268 39.667M18.666 39.667C18.666 37.0897 16.5767 35.0003 13.9993 35.0003C11.422 35.0003 9.33268 37.0897 9.33268 39.667M37.3327 39.667C37.3327 42.2443 39.422 44.3337 41.9994 44.3337C44.5767 44.3337 46.666 42.2443 46.666 39.667M37.3327 39.667C37.3327 37.0897 39.422 35.0003 41.9994 35.0003C44.5767 35.0003 46.666 37.0897 46.666 39.667M32.666 11.667V25.667M18.666 11.667V25.667M9.33268 39.667C6.75535 39.667 4.66602 37.5777 4.66602 35.0003V19.1337C4.66602 16.5201 4.66602 15.2133 5.17465 14.215C5.62206 13.3369 6.33597 12.623 7.21406 12.1756C8.21232 11.667 9.5191 11.667 12.1327 11.667H37.6663C39.2444 11.667 40.0335 11.667 40.7392 11.8973C41.3636 12.1011 41.9379 12.4344 42.4246 12.8754C42.9747 13.3738 43.3662 14.0589 44.1492 15.4292L50.3489 26.2787C50.7153 26.9198 50.8985 27.2405 51.0279 27.5808C51.1428 27.883 51.2261 28.1964 51.2762 28.5158C51.3327 28.8755 51.3327 29.2447 51.3327 29.9832V35.0003C51.3327 37.5777 49.2433 39.667 46.666 39.667" stroke="white" stroke-width="2" stroke-linecap="round" stroke-linejoin="round"/>
</svg>
